<mxfile host="65bd71144e">
    <diagram id="XBb_jYI1_Izm2xkoOVVm" name="Page-1">
        <mxGraphModel dx="2830" dy="1892" grid="1" gridSize="10" guides="1" tooltips="1" connect="1" arrows="1" fold="1" page="1" pageScale="1" pageWidth="850" pageHeight="1100" math="0" shadow="0">
            <root>
                <mxCell id="0"/>
                <mxCell id="1" parent="0"/>
                <mxCell id="2" value="" style="strokeWidth=1;shadow=0;dashed=0;align=center;html=1;shape=mxgraph.mockup.containers.browserWindow;rSize=0;strokeColor=#000000;strokeColor2=#008cff;strokeColor3=#c4c4c4;mainText=,;recursiveResize=0;fillColor=#333333;fontColor=#ffffff;" parent="1" vertex="1">
                    <mxGeometry x="-1275" y="-390" width="850" height="790" as="geometry"/>
                </mxCell>
                <mxCell id="3" value="Chess Club" style="strokeWidth=1;shadow=0;dashed=0;align=center;html=1;shape=mxgraph.mockup.containers.anchor;fontSize=17;fontColor=#666666;align=left;" parent="2" vertex="1">
                    <mxGeometry x="60" y="12" width="110" height="26" as="geometry"/>
                </mxCell>
                <mxCell id="4" value="https://www.ilikechess.com" style="strokeWidth=1;shadow=0;dashed=0;align=center;html=1;shape=mxgraph.mockup.containers.anchor;rSize=0;fontSize=17;fontColor=#666666;align=left;" parent="2" vertex="1">
                    <mxGeometry x="130" y="60" width="250" height="26" as="geometry"/>
                </mxCell>
                <mxCell id="5" value="&lt;h1&gt;Asdahs Chess Club&lt;/h1&gt;" style="rounded=0;whiteSpace=wrap;html=1;" parent="2" vertex="1">
                    <mxGeometry x="10" y="120" width="830" height="110" as="geometry"/>
                </mxCell>
                <mxCell id="6" value="why you should consider playing chess?" style="rounded=0;whiteSpace=wrap;html=1;" parent="2" vertex="1">
                    <mxGeometry x="10" y="240" width="410" height="230" as="geometry"/>
                </mxCell>
                <mxCell id="9" value="Link to my info page" style="rounded=0;whiteSpace=wrap;html=1;" parent="2" vertex="1">
                    <mxGeometry x="430" y="240" width="410" height="230" as="geometry"/>
                </mxCell>
                <mxCell id="12" value="Watermark" style="rounded=0;whiteSpace=wrap;html=1;" parent="2" vertex="1">
                    <mxGeometry x="10" y="750" width="830" height="35" as="geometry"/>
                </mxCell>
                <mxCell id="J9-nBnzPohDZfumzVxLn-15" value="&lt;h3&gt;Link to play chess&lt;/h3&gt;" style="rounded=0;whiteSpace=wrap;html=1;" parent="2" vertex="1">
                    <mxGeometry x="10" y="480" width="410" height="260" as="geometry"/>
                </mxCell>
                <mxCell id="-gCL7AmwD0FtxaIu2AaU-15" value="&lt;h3&gt;Link to Contact&lt;/h3&gt;&lt;div&gt;&lt;br&gt;&lt;/div&gt;" style="rounded=0;whiteSpace=wrap;html=1;" parent="2" vertex="1">
                    <mxGeometry x="430" y="480" width="410" height="260" as="geometry"/>
                </mxCell>
                <mxCell id="15" value="" style="shape=image;verticalLabelPosition=bottom;labelBackgroundColor=default;verticalAlign=top;aspect=fixed;imageAspect=0;image=data:image/avif,AAAAIGZ0eXBhdmlmAAAAAGF2aWZtaWYxbWlhZk1BMUIAAA1HbWV0YQAAAAAAAAAoaGRscgAAAAAAAAAAcGljdAAAAAAAAAAAAAAAAGxpYmF2aWYAAAAADnBpdG0AAAAAAAEAAAAeaWxvYwAAAABEAAABAAEAAAABAAANbwAAeiYAAAAoaWluZgAAAAAAAQAAABppbmZlAgAAAAABAABhdjAxQ29sb3IAAAAMv2lwcnAAAAyfaXBjbwAAABRpc3BlAAAAAAAABAEAAAM0AAAAEHBpeGkAAAAAAwgICAAAAAxhdjFDgQUMAAAADFRjb2xycHJvZgAADEhMaW5vAhAAAG1udHJSR0IgWFlaIAfOAAIACQAGADEAAGFjc3BNU0ZUAAAAAElFQyBzUkdCAAAAAAAAAAAAAAAAAAD21gABAAAAANMtSFAgIAAAAAAAAAAAAAAAAAAAAAAAAAAAAAAAAAAAAAAAAAAAAAAAAAAAAAAAAAAAAAAAEWNwcnQAAAFQAAAAM2Rlc2MAAAGEAAAAbHd0cHQAAAHwAAAAFGJrcHQAAAIEAAAAFHJYWVoAAAIYAAAAFGdYWVoAAAIsAAAAFGJYWVoAAAJAAAAAFGRtbmQAAAJUAAAAcGRtZGQAAALEAAAAiHZ1ZWQAAANMAAAAhnZpZXcAAAPUAAAAJGx1bWkAAAP4AAAAFG1lYXMAAAQMAAAAJHRlY2gAAAQwAAAADHJUUkMAAAQ8AAAIDGdUUkMAAAQ8AAAIDGJUUkMAAAQ8AAAIDHRleHQAAAAAQ29weXJpZ2h0IChjKSAxOTk4IEhld2xldHQtUGFja2FyZCBDb21wYW55AABkZXNjAAAAAAAAABJzUkdCIElFQzYxOTY2LTIuMQAAAAAAAAAAAAAAEnNSR0IgSUVDNjE5NjYtMi4xAAAAAAAAAAAAAAAAAAAAAAAAAAAAAAAAAAAAAAAAAAAAAAAAAAAAAAAAAAAAAAAAAABYWVogAAAAAAAA81EAAQAAAAEWzFhZWiAAAAAAAAAAAAAAAAAAAAAAWFlaIAAAAAAAAG+iAAA49QAAA5BYWVogAAAAAAAAYpkAALeFAAAY2lhZWiAAAAAAAAAkoAAAD4QAALbPZGVzYwAAAAAAAAAWSUVDIGh0dHA6Ly93d3cuaWVjLmNoAAAAAAAAAAAAAAAWSUVDIGh0dHA6Ly93d3cuaWVjLmNoAAAAAAAAAAAAAAAAAAAAAAAAAAAAAAAAAAAAAAAAAAAAAAAAAAAAAAAAAAAAAGRlc2MAAAAAAAAALklFQyA2MTk2Ni0yLjEgRGVmYXVsdCBSR0IgY29sb3VyIHNwYWNlIC0gc1JHQgAAAAAAAAAAAAAALklFQyA2MTk2Ni0yLjEgRGVmYXVsdCBSR0IgY29sb3VyIHNwYWNlIC0gc1JHQgAAAAAAAAAAAAAAAAAAAAAAAAAAAABkZXNjAAAAAAAAACxSZWZlcmVuY2UgVmlld2luZyBDb25kaXRpb24gaW4gSUVDNjE5NjYtMi4xAAAAAAAAAAAAAAAsUmVmZXJlbmNlIFZpZXdpbmcgQ29uZGl0aW9uIGluIElFQzYxOTY2LTIuMQAAAAAAAAAAAAAAAAAAAAAAAAAAAAAAAAAAdmlldwAAAAAAE6T+ABRfLgAQzxQAA+3MAAQTCwADXJ4AAAABWFlaIAAAAAAATAlWAFAAAABXH+dtZWFzAAAAAAAAAAEAAAAAAAAAAAAAAAAAAAAAAAACjwAAAAJzaWcgAAAAAENSVCBjdXJ2AAAAAAAABAAAAAAFAAoADwAUABkAHgAjACgALQAyADcAOwBAAEUASgBPAFQAWQBeAGMAaABtAHIAdwB8AIEAhgCLAJAAlQCaAJ8ApACpAK4AsgC3ALwAwQDGAMsA0ADVANsA4ADlAOsA8AD2APsBAQEHAQ0BEwEZAR8BJQErATIBOAE+AUUBTAFSAVkBYAFnAW4BdQF8AYMBiwGSAZoBoQGpAbEBuQHBAckB0QHZAeEB6QHyAfoCAwIMAhQCHQImAi8COAJBAksCVAJdAmcCcQJ6AoQCjgKYAqICrAK2AsECywLVAuAC6wL1AwADCwMWAyEDLQM4A0MDTwNaA2YDcgN+A4oDlgOiA64DugPHA9MD4APsA/kEBgQTBCAELQQ7BEgEVQRjBHEEfgSMBJoEqAS2BMQE0wThBPAE/gUNBRwFKwU6BUkFWAVnBXcFhgWWBaYFtQXFBdUF5QX2BgYGFgYnBjcGSAZZBmoGewaMBp0GrwbABtEG4wb1BwcHGQcrBz0HTwdhB3QHhgeZB6wHvwfSB+UH+AgLCB8IMghGCFoIbgiCCJYIqgi+CNII5wj7CRAJJQk6CU8JZAl5CY8JpAm6Cc8J5Qn7ChEKJwo9ClQKagqBCpgKrgrFCtwK8wsLCyILOQtRC2kLgAuYC7ALyAvhC/kMEgwqDEMMXAx1DI4MpwzADNkM8w0NDSYNQA1aDXQNjg2pDcMN3g34DhMOLg5JDmQOfw6bDrYO0g7uDwkPJQ9BD14Peg+WD7MPzw/sEAkQJhBDEGEQfhCbELkQ1xD1ERMRMRFPEW0RjBGqEckR6BIHEiYSRRJkEoQSoxLDEuMTAxMjE0MTYxODE6QTxRPlFAYUJxRJFGoUixStFM4U8BUSFTQVVhV4FZsVvRXgFgMWJhZJFmwWjxayFtYW+hcdF0EXZReJF64X0hf3GBsYQBhlGIoYrxjVGPoZIBlFGWsZkRm3Gd0aBBoqGlEadxqeGsUa7BsUGzsbYxuKG7Ib2hwCHCocUhx7HKMczBz1HR4dRx1wHZkdwx3sHhYeQB5qHpQevh7pHxMfPh9pH5Qfvx/qIBUgQSBsIJggxCDwIRwhSCF1IaEhziH7IiciVSKCIq8i3SMKIzgjZiOUI8Ij8CQfJE0kfCSrJNolCSU4JWgllyXHJfcmJyZXJocmtyboJxgnSSd6J6sn3CgNKD8ocSiiKNQpBik4KWspnSnQKgIqNSpoKpsqzysCKzYraSudK9EsBSw5LG4soizXLQwtQS12Last4S4WLkwugi63Lu4vJC9aL5Evxy/+MDUwbDCkMNsxEjFKMYIxujHyMioyYzKbMtQzDTNGM38zuDPxNCs0ZTSeNNg1EzVNNYc1wjX9Njc2cjauNuk3JDdgN5w31zgUOFA4jDjIOQU5Qjl/Obw5+To2OnQ6sjrvOy07azuqO+g8JzxlPKQ84z0iPWE9oT3gPiA+YD6gPuA/IT9hP6I/4kAjQGRApkDnQSlBakGsQe5CMEJyQrVC90M6Q31DwEQDREdEikTORRJFVUWaRd5GIkZnRqtG8Ec1R3tHwEgFSEtIkUjXSR1JY0mpSfBKN0p9SsRLDEtTS5pL4kwqTHJMuk0CTUpNk03cTiVObk63TwBPSU+TT91QJ1BxULtRBlFQUZtR5lIxUnxSx1MTU19TqlP2VEJUj1TbVShVdVXCVg9WXFapVvdXRFeSV+BYL1h9WMtZGllpWbhaB1pWWqZa9VtFW5Vb5Vw1XIZc1l0nXXhdyV4aXmxevV8PX2Ffs2AFYFdgqmD8YU9homH1YklinGLwY0Njl2PrZEBklGTpZT1lkmXnZj1mkmboZz1nk2fpaD9olmjsaUNpmmnxakhqn2r3a09rp2v/bFdsr20IbWBtuW4SbmtuxG8eb3hv0XArcIZw4HE6cZVx8HJLcqZzAXNdc7h0FHRwdMx1KHWFdeF2Pnabdvh3VnezeBF4bnjMeSp5iXnnekZ6pXsEe2N7wnwhfIF84X1BfaF+AX5ifsJ/I3+Ef+WAR4CogQqBa4HNgjCCkoL0g1eDuoQdhICE44VHhauGDoZyhteHO4efiASIaYjOiTOJmYn+imSKyoswi5aL/IxjjMqNMY2Yjf+OZo7OjzaPnpAGkG6Q1pE/kaiSEZJ6kuOTTZO2lCCUipT0lV+VyZY0lp+XCpd1l+CYTJi4mSSZkJn8mmia1ZtCm6+cHJyJnPedZJ3SnkCerp8dn4uf+qBpoNihR6G2oiailqMGo3aj5qRWpMelOKWpphqmi6b9p26n4KhSqMSpN6mpqhyqj6sCq3Wr6axcrNCtRK24ri2uoa8Wr4uwALB1sOqxYLHWskuywrM4s660JbSctRO1irYBtnm28Ldot+C4WbjRuUq5wro7urW7LrunvCG8m70VvY++Cr6Evv+/er/1wHDA7MFnwePCX8Lbw1jD1MRRxM7FS8XIxkbGw8dBx7/IPci8yTrJuco4yrfLNsu2zDXMtc01zbXONs62zzfPuNA50LrRPNG+0j/SwdNE08bUSdTL1U7V0dZV1tjXXNfg2GTY6Nls2fHadtr724DcBdyK3RDdlt4c3qLfKd+v4DbgveFE4cziU+Lb42Pj6+Rz5PzlhOYN5pbnH+ep6DLovOlG6dDqW+rl63Dr++yG7RHtnO4o7rTvQO/M8Fjw5fFy8f/yjPMZ86f0NPTC9VD13vZt9vv3ivgZ+Kj5OPnH+lf65/t3/Af8mP0p/br+S/7c/23//wAAABNjb2xybmNseAABAA0ABoAAAAAYaXBtYQAAAAAAAAABAAEFAQKDBAUAAHoubWRhdBIACgoZamAGZ8EBDQaEMpT0ARDwAMMMMUD5PCHT8A6H8BPO/yFoRmp2gee9fMEPu6XtvyM9TQ2M/P4YeVwlRfNPZ/UOnaPFvjqoSUJkFZ3emUcp8EO4xvEtAHwem2OCeKF5t9cBd58YcMqMYGAbrymDQmVgeSXLOO5p82aDV5IdSWsEPiufTTzmtynMKRsN2vK1+pC7Gx9Jq8EYUpga7/mHI8nl1ModqexU7HCOrklK+ShK0gN8ntXCBrstf/CbyNdjHf80nf0QRrhwZexRpnzBzmPmhBOf8AVqQmIrkE29JaBD7sHRPM/cfiLha/0FQVI5r/fHZ7RJBuV1ogsdT31G/C/4ciY8fc7CCpjeZD4IEZePnv28FKUPTdfKFDGOtOIY6V2nHdPoO+Fk70v5ZDY+fdE+h3AgXVtd4hzDPY5lZ6ihB3mIrI6fcNsaWv4UJSjP/5afVBA+4u4kFMyyDmyCArqp1QcdXvZUYVyIjKYHSmnqZV1hzx2m7fs59mVheRBzdN4hZqnGamlkPVIvWosbbyC+M1M4S77bVa9Xc3sUdZcx0LOWNAkaqETJWGq+WaTtCqCJj4+ITA6pF2n9CWWZwG9qBNpgGO9mqYJd7HuPDeqW5uuEvcAw+h9oi7/Zr9jXQfpYVVhDKIaxgRwzoNvSHxoF4XlT0Ft1ckqn2IP3nYjn1jI+4vrLj1Mmtx1ExbMmpU0CDqrcb28aISGPSekMBjBHbjtvj1QghsNQ07xrzdfousn9n1IQRkpZgXgVZNq3uwpc0SAyKqDOlneybD128OLmszvamhSEH0YjjjcgRo0CvMKYJ2s7XgoqyMvqedFquYkDPQApmw0n082Y5SgwauMb4RFHGofQsBW8nwJDhPsn7e9Z1snt8SBqtnUQX8dLqMpSK0gBT1Thgpzf3zTsglj7ZoL32dSMn/VG5CXd6WjdUafvMVFfcTBlf0b1fzhR/DpoSrSS5uoXfzbPNEEeO1NQ4erDZKOCLrVm0wYwN3BcEtw83DDg339hlywJiO9o/fkQMdrQViEcNaYcSOAVUxe8icMyBtN/tV1LIm97b2McG47FRtr9m2nU+QnnMCh9MnMlhOEgUDQqnKOFj74QgwnRVPDKnMYbMET8b9OE+4NxgXA/0Kx/LVoX68SiCPUePxgjCgvRQ1dQislkZ6wrRpepg2sjJgp5EYD/NO9WhuYmzNiadTWIyR/zrNdb5Ur800YRQoyLzJJyXzXcqANO3xpd1pdSnP9ZOayWGOGDFQn0qvGbXQPeH9Lctfrqr1QE7kKsKM1s/BAkT6ObzYKqF+D9FuXtAcUh1bm2FIi7JWFYvIWH9X0pLtbJHw5ZxD6DzeV1zIbmAgRn/rqIGr+hb1VfTrZNTsN5qBGlU9GwG4MIlnlWoFjVffkHRUOZyV5wWJGYkrq2euel+gjWfi4q5mHZZ59EumPqooqMTar/HdEyzcIEMbcPCjRptzDlFZNQA7W40uxaGakmjgDvSbky95r+lfbga+FUhT8Gk5d+4YH+vHjeU1XNHglKQa+tMg/PEwPMdLRS0jMEivcQynBARPMMLWj/GGmNQo7oPuME9CAsxboZPx+NBh+rgcA0LPNv+3dQoJnL6wbJLxCISkAwf7XuFO8UMzxsQSgj95gw8jMB+expdznrunDHaCQHzJBQvDkyNbsMaSJ7+GwiIlp4qAwaDHc1IwLQqRXvbdK+pXTMdxco3i+e95hwAP0RRNVbfl6kMGfdnSswzR94EvoXV4Sket6jNbPJ8Sv8U87j/J7+zUOO2B4xAyIXq8/4HI+LymHMMdb5niuF1gBgIjsaasSR6hQ9b3CpmEj5VMzUTU1vVLaPTyITVoDrV7HOn47E24HiElOnbsHsIZzoBMQSdotyvvfNkieOCteB+8+WDnMUXyySAWY7p0lBOMlnTW9pfnlQ0DeZM4MgHvBsVbSJ/glgzmtUMdbORV2mBM2kBn1E4ngWUi7HoWmGcCJvNyjD6f7sTtdfGLiqKmJ1RJql1Bdonz+T5i2bVBSZFp1Vl7u+JsQQrRhRES9OlQ58YDvE8Iv+u1arJdzBYdBlRFpsFXgNb//S0Mq8x6uep1sR0k0utGWhJKBBHP9peO8HAdsKjvzu9zcnmWoXb9MrwZl96d+3EcAZn8woMLnnJMMim+wJCMUbHsflUdOBXIabeMOvlDhTeFkz1XaIW5vijnrvOO9Ta6+sLH2iITZaYZuzTxOi31QCmjqE5J8afkOcDYvAwL1JsZ1aNiyYmnY1lImhoPwyzyYfCERv3730RGRiCy37bhYGSecQsHRzXQ7gcjBYDb4vjMG6vmxXOVBXoDsNg7C1ME1b3hv2b6v9zMPfiHydYWgH6fflbKAnIDH+d79Y837Zxxn5Qns9qGfTlcIph4kqiTgTmwGSI89u3fZk9c/KKxyD8fC+JKb95rd3puAZ6iG0kGeImER1CYscZQdzGkQHldIRGoGRbViUvFOxr6p+dU5H7AV+Z2rczCP0+JetEQek6+jzZFOHtj8+LdM7iJaZKVsuVTz/xo4/6+cWp8JVuBqdXFcykqfBWVU8939Wsf3MwaO4850JWPtZUK5Ty5Ueg6Da6hko3+qmvzZ4S+xU4QVD3EuiDn+G/PjA5DEy25kOI2uTv9obor4zruakscAhwNpIyoLnTGOzX/3ZUJxAg8qJlFBvLYPMKig0WgzzMryJKPlLNJOL3hrt0Z8czRpTcftCeQ3guFWXTwsqxcyku3dtQt5L0gRl6yd4FYU6lZSPRseiO9VBp38usNrTt8pUVJVXKtCoxD/GHNPPfC5hk69QP2S7McTFYjrD6U4rQyMdf8a5Xuj2iOECqtoH0L7vizFNzmyQFr2byYZQpm2bCQGT/6U7syfO4aGgitwR8AqY78L8iu6MA18I29dsJgku8tXnf+0CEA1loCokkOoKL2TJbLsHbkRt9Fel5P1oYW/mPO1q1/CUJIseDplF/SrpNEGG83BSWimae6UMvJll1qAIWb2dFSZP4i4THquHfxZc5dNhOi3+x6LnIVQ+zj+jZyEhbiQ8fkzVl3O2UhFfN+fzsqdLcl5gUGspA0tYm260QuKnNcRkFuLFsuGV14Rm8xD2daB/17mLxam6mwoXM58YfJGPELb++3yAl7BzV8+5OiZC7KUG1o+3yxtrDaDzirDPlSoBXb6SOzZUzcL3WgHKUyZ00qpf3To7x7b3IwCl+thIHu/WjexvUXvK6BaD/v2n9VdJtIY8eXHab8Jkq8LkTub4e9hdLViaKUbdke7NDosUpF4flA3nePnXkxy4gnQy/lhJ+l4yfpxV/wY6P4WDwcC+XxdqtHnU2dECWsb1xqZUwBlkWz759XkemnDFo47fSGF7HA2WtdWHz0df9w4NlUkkLZNVxdwvY5mctWzRQMmz+QQjBzy9AVhDLNryr2lg7ZhD0s+YVkxj1Y18KHYn9gwA+zwDPltWuRpvrllZpesuQy8BL6MHq+w5h/i6q2/mdDvp/D0miLvp0AO1lbPZjiD5/68jbRoOE2bWZcVyeEDSJ3JyY+UjQlJJwe8+RZRt8q2yvHyt28mQug//gukWsbzFbOCLHackX5XQz8/wkdnBUOrICUksy9sUZ1lksVy3uxAWTNvVQHb49flGirXp3bMWpHE8vww/g5KLii3VxygdMc4jgqJC5FB8J5qD8QxzZ7U8PwfKgbVemjP2eETuxEfpSW0BnW8SeA8iLKGBRWp1pLUKMIPsi2UPdD+cstj8TOhpoAD7L+QhCGKlZ4GJnR2KX3nJ7XUrxezlagmsVohQwee41+iDZv/ZHPaKtK+lxz+uKBxszIXs1bCx/eDSmd31z1Zxq1w7VmhZXpXr7Ob5UeJsP46mU0GlRDRNv14lRoXT/KNxY3PFcEneA9jvEeemssYlpibgdM5C+R0N2xqQ2cixT8gZpq/FBxLeB3r987EDVB6sqca8UYc+g0u7kKItieHZxCwEM/0HtPcY2pfB4ab8wyQP1HLkiRmc9+s1KhOBVoj9wTvSfUClhMN0y1KglqWh+N/5IDGqjDGp7rsWFyTuaCJ7dE8g2kqJew1bkwnIKG6lxCHrR4ZicRcappJixhFD3HrqELgidQjH65NmKkIkNhw86Ik59DYYqS+m9W2Z+PKaWJ5NMX3nbF/uvo7rqSWRRR5WQaOx/v8GKelNKq42lT1h3gRIo8MXcbHUjoq5XnFVHZHtotHV73p2G0UY0eAqPJ8J3r/hE1u+0Cyan0eZCnr0P3JM72HIrIrRBC2XiDDcEwGU9sJjJFP/rtaXK58GNSXE7UWyNiSnW18EIkma2McBAgxzZiTxcJctCmBbA8sICpHo3lzAfFiaaa5ZAcYirbyUArLa/mtlSOWI4sMQu+vGzBi4vMcVe9fOvs7y5XPBlwOFdmzjQxRUPO8GpHcNQVPifBjaEXNOjTb+K8lgZW8wvRNPxLA+XJ5R0aGX/L2k0I8vBiNFrGQ72CHw5OIJtRT2UVPGd3+km7Fd65/H8bBorqWxRUQd/1hHpHmHN6QB0EsVIKhP73LyyQL6rQhl5yafg5qjij8zIglZyWA1C3YlP6FE3wzZJ7oFTIqdyAgg0mjECXUvPNkgN0oLJZRh6iUoVXw6M6yeDMrIeuBd+KOYMYSpweWSKVbLGekPBFSScgNH7YJGPi/W7Y5DXCWBdtLgLkavLVa8yOBwW0Qzc74Cerg0ms2I0qmslyYtKsweum6OYqvWE29GrXHKLVm0kNhqwZLkhQuqwz+TV6a80FzR53F+MQXEJT/HA4NngsJoDgZLzrf3I2npqptCxgV64JXoOewtSHkaVhAe3SjTqUWfxw4WX3CGlmKSyxb1Q1qxPNC7jIIachLFM12YT5BakcRcH8Otb46+3xln3YcTgiSLAodB69r6upJbMbE9xTSdiRP1Vi3oVxNYNSOtGekjw/8je6zJxZSFKpLLsXBAh82lHCWSGttLPthirIij7OmQwzm5mqmIn9jepYRpZ+SzEcttow2MR0ulcYWz/kHy3GMz2RFT3Vfkj+/N/DQCq0saGQGZEVyXi2jJCPv8zSNjgT+/JE0ehj0GRKGKleCti65DrvsP0dB4Gaz1/7LlSxoA/xTYXylAgQsEATN4SWfQKIJJglMVF0HZed9AgoIYnq9TwkqnzYlu30vmD16ZK1Q+Z/YMDUAXc9Mh1Ivhzx3n05/9XKtrGbqgMydLb3H37Zc2+HRhGvDFJ8nyICCQ0ttU9BIvp2zp5y9Lk2YKgYXJd8Yniy03QjgDOnOYX61YzPVRPnlkIEx9uk02+NUy/HoIjylXl1VHLzhNPs4udaNY72vilVxNyQvyQGXdaPfCjweMU6w08HH7DQ/o+o4UuOH628oYqFTWrRlidjUt4h904ASJ6z5H8o0HOgehiGVftv0QObhgr0NuP6gCncTTVr+7+wNtw+wQFtc4e5kg8DHCilDqD5iznsUAs1+QMtDP6vlr+6LQeyFCkkyvi78KvmGWnRZZ7BN1/2pmmZ7OUbwu7p4sKn5orvdDPb/FJ8xs8gdQKnvtG2PB5ZeYpbbjEpJUqSnwAJSHkrNkrUyiRh0POWqnAPWddDaggoKpD6s43D/avTx+p3XkOQ8X2rqx7LRIstENUzGrk3+cUz5nbBiiGfncuNk8B9QD+g9/+Aq6hPM0ySPfBJEYTud5uVWCquQBesa5MOSqc4nCWpHOjRGxZfokQekEgorhmN2K4gLN1XW87zx8bl6PWAnAtV1vsKSzJk3YdiSLW86KOB290IJCk5KtK6ILiryMjwALXm/Ui8pWJeiU9gBFMfPsGGh5EwCJefZZIqO0XGc9f2D/db64NJu9IZR62Yjuig1Wfl7D/EfSyLreak31IJcsdpZMLs/3UFpXvJ2EVvvJoEc2tmB2dpf2UXeMHcsOOe85xP33dC664bSHRONnfgWOk9rErogtxnRN8saTw8knFvQb4AAmFqckRc/XCKMbdwo2jhKdT+XJWr9LOaBUAJd6oPhft/GoPVpKRSU5FiIobcrH30r3mmRLz18mzkiJEpzgu2iBENtvKWbYdYv+GHRsKnJmDOuv/vK7bZ89yfc6z9FRjRX04Itv4lYNRwnQJc8MQRbx6G/h4eF02A4dBKsuwjTTtlmL6YDHCHLTjjoMMzs0enqyxzIDmd+K6CLO/HjJXMqJx7KGs+TI53CopsAyR4rqFuZIACFmyihRbbsVZ+5yPV1rUpupd5k+Y7Is0r45/bKqRYgbZz5IbsY95YZlea/WnXleDAf7BcrR/sEM6SdSXypA9U1QpJo1Aiarom29Tx7neS2NVxmWaFf5lhZWAK1xkbaT5sT9pXmsJ4eFDQzpSkdooDQ4lBdYM4kn3WIvGaYWznQcG9eEUPDEilgE2YFaVKbz/BnNRz8hJarQ78jUZP/FOvx1fZj6SN5ygue9cgeRlP8Ltv2DoBlAYLxpSbRcct6Qp92lpsiCyrvSZBl2HTUgDHIbtz1jQskG0ozTooL+Xc1Bkb3a6++PjDY4VPF6EVeylAkxNRaIXXyGKjLAP461ohNKFzKa1n5QEm28ysQjD+pakJ5oF5KZpVLFehN352JY/hScxhwh9UDUov77A+VeD0JMB059G08v+s7FoR1wnXOPoBD62tv4+fhiSKtmNWpOQNnyiu9j082XArDw7Ck4E/xRX4W8IHEO+Jfko0Fmtncu8MKJs0JndgGW2OdagNYIuEDVEMAzpPeU8fKn+EP68ZW1bwLfSK7Mzr0GTLudIqKyq0tZzr6cwEPjhXafGFXOa61LAHa7v96BIQzBuhfApGx22CxTdcmjVMmHiD1rveNFet+1CFNcZpNu9AFPzCrex7aK3yxqndA20dTMJJySirOAzSTl5hXKxfzv+lyK02q7B5Zw5EtBx0o4LbvjXdsWiD1O3+bxbS8gv3JX6M1qp7N2o8KBgBUTclBGYJFFmnvyG1W5Iw94ajGwqgFQSHsjhr6sxRVwfsm9MfKQMIiyyR7tCq0ci5TtjNTedPdas8XEjGPmog1Tgofu9oPfo+OnjH84/SR8pB+Xlr4k6nVK0vsbRkZBSgilOemR7ZJ7ewGSLqbuqpaNevE010tPG3DgdEiExzjfGAEW3AnzedOIjEQwhMl2JBzu9DgpZljCvsiD3jVhF/I6gFFi/TKB7wUNw46IDApEI3fBlqP87Tg45RCdYwG/ppb/DATWLHHXKlN7CD7ya+/Xb/8pufTGLDBw1LGgSfcTNKPspMJ0RyR81RyHVgocidYNfGM8Qw7M1ws8m9yQm2fPaSuKTVspEBVIMTB/ZVwet6A2nI4hUGJKNuhwmy7PxkQV9/S+juzJZh01c0e6mVkp6N89fa8ZiGlmfYDYVoNw1tvV5HkFrmElzz8CuVSOiwVvG1BdTyBzvEkG4/UU8ceOAkoezouO0NRanfJejEBb7Fu8SCVUi1LgrE8uLPNiFc+GNlKZApn/iBfLoZb9r2vPL0g9FN3gBeXXSTsRRkksJEyMyulDnUsB8/7InbnbMhhisXm1TmKNz4Q3zQCtvjcBBqtTMzaT7v7JMefIsNPhWQnDaJs0NlB/rCpXaLOWdTamg7O0n/P+IW2OU9m9OGNiQQDHA9nT2nfktoFU1iwUh4h28G+ljjimfMu1idbN7PQLF5depWSO+nh8Wn/sJR/GWKxc8SNau2EwoJiaL40EOJNDkSnYKA445YK2sBTQv7ugC1VHxob18TSlvGAO8LOEXGlGg3uEY4KTyjz9N+9VX75EIB3+F5Up/SzAjieMDPX25aiIm1y7WonxvF82aP34mt7BPak5xRy6BBagF0FrHTHFMMbuVj6vjePUrNs3lWNLLnzInvk4N5zFHaStG6I54GLf9fTiZvWj4/RJP4VE+VoDCBSVkfkottFpCSFGElkmWwNcWYobfNiyxam/rWtWvH5LwmNJd0ZRGyTns7imkMy2Q51HFOsLYnssfI8mSdcCWUtvsAKmfKcjGrptDBsoA4dRl25cLIGqK3QIhiPpyIK1MUGiUyBpRBzXMEperou3gF5VInkR8dPQ520LHGQhCdyQGwfh+iwJbixiWl/vp/oz8nNmJ1ZH2L5Zbc30TXMm1rLWhz24JeXPH3s929f2A+5yOx2sDth0TI3m6JVuBeMQz3qSAYM7SwERzKaqBe1hU8k57KN3HFeTEEJkzkx3pLbHGlMb8Tb0WTwyzDqoMZCb6SVYxI0hinbZNOm/qWX+EI9URnaqrEj6CEeWuRLpfBUu0pWgmAwlqdORXxB+bvOy5vDBF6TRjuYuvzwb+4B9xOQ/D6HWfbNeyxlY9JuyWvZzWY1KO+KRepAQ/qJpqMp/j9k1mdTSiGm/4zhuUl9AOKkGGdpdmS0UL0ODoCeOvRzoevWRm+/zTh2fpLLFX/11B9+dLgdJWtf8wrfAyoIkBEWRebyRVpx9qaqIaN3fMfUaQwaNz3cctvB64ruLMt29Tx4gyqIInYnLPmKMi4xwcEVkJllKdOM0tEAtyksWP+dbJMUSbI1DzBrJmWYuM4WQySdnXmt2hu9/6nwd3XrIJC1x9EEDyhZZLiNq8Fkw3nUnAwPlu+29pglb4NBsgglHcv7ANVogXSGLO9EVDvB5+nMtXuIGiFLSSi2j4QjviXhddjdJsyk2W30wJVQeJe7IATCAm2Cwzs/LaahiGiB45llUyVKPk11AJbrQQvmgFdAY6TbbRd+KpDObJvH1xusXkN+pudwozaAGmRGgILa3CRaA1iDnEVvKPoi0nokPktHIeETIdlIrOFru+0+RJS6JJUT4YtldQZaHYK4mBuQpIEreAHLS1DqyjPMXOQkghJ9z9jB/vF/VjIzLIQPLTfpoLH2UE/BFw5dQsLQszxxamc/U4PpHQ4k3gpd30MfT4xCTNnK4+ZwHZhs7oHfaXbhPwAEW3EXzXBLa+Mdb0sknGSov5jJl6NJvfM3wFthqBle/sKu/sXKA1fFneGk5zycfzRWRidMsYPUQeBQrx60gK7KSUiVT2FZdTTmlYZNGp1LB9xcJBInGfy3LJraNfjR+6HScVfdcr0fb0AswFVL6T4iTDPsr48jD6fazbfk+Iah0VRa0UHUstiDLuygQZytntg3Va7cSlxqIFLjBMZECuv4WdZqgj2vxObKQ50pNiJsJiTXn8ZrfdI348YHUiEND0+Rfv+3rgA498JU28BSKs3XRJDV7dXPAYuKIGmKwUaHF+9b1jtSxnANcm9QICeULEFfJGVqLCx5lse11DQPzdNeD5pzu04FimYwKQk9ChCf4cSb+twvKDjp3c6CiI+9UfR9hZJ9rr+5JWibqmoZ3N6EL6BvMPT7qXqp66wglRGrVo2qdf99zkzPa9tdXzOCiyYev/k/J1hJpPMe/EQSqCVmgsQpP+fW7gCL3fR2+Jje7KICZNc0KZpZh6bbizXc8POMcDSB/Ya8IrJc1xKFeA01gc0NG03o1Wmjmol7veNj1I1KFuzqr7Dy433hGHq2j809Ezot5NT+7MTQO5G/0gcupIxJVzX6vzflPT57FA9NBscLHzkBjvz/J8IhCwZmOr0nKPnljcopKVuwNazqxG2L1QvIzp/J+/pqbg56kuWPg8pmByQOtC3JVHn1cMCLbfxjHgbxp+q2qy3QiD0H3jwfjTzSa3V2XUh2ETNb3g8o1ukVRbZI4MH4VusiSjjC5h7XyMrfH14iq2rqkzYHDYJGnOQruRF7PcyMi9NyyJ2gKM3yQenCHGQndFS79tjfsCJ1aLupn+H+pPjOMyhDLj2ZH9deKZKEVJcH/9sM0lftDoSz50IE4JSRKFSdaUH3ItUyOaIh+K8Vk/tBE8wypTPEQmbFz484qckLI4uXW3Q5QvKR3Lz8WepwFUAOn+mMPhX5QPqHxhbtG48ncbBo+Nq8+wSw11Qu+BxrM8jVM4PUhDX5a14II1U0wKv0v5bWmXDDbqaDCoebbGd3N4OtdS+rqvCHI5bJ2joAi5zKSNYqw4/LBBrgNdNXQxCW8ERRkapgO/6++gds+Woe8J8AlbhKy2jI6NIkYTKoz4SX4IowoqPWc7sIFPtyVK1uIKNxbadSjEh0ozsEqRczzKc47BpCWJWboXNcrUbcbB32MYs/qaSitIqGBrTYQdPXnIY09FVON2daGmzhkyTak1HHI/hda/qbaEtI4hf0T/PPQu8wAF5vi8peS5PJ1M3POYdhGY0BIb4EoAeuDg8kEd5yO0zP8sg0TDJVa302HD0KRRblGqCAcPozCjTA7ao/xjpVUMekA3/MSXNC+JCkLU0JJNMNRBglwHHQWxrkT1A2qMkUmVfB1ltKOqVakRI8XWR2oCkkFQ5XMZK5JdyjwY1tkNn0xQCdC3cxP489cfUWxCRKiOins0TiDuglXQ5GQuYNhJGksoZYS9gS3a7bW1o0MSmIJGEe8rWSH8T0ufurOP2fyUGcSRg1HxR6decRYzbB17frzmt4qz8Kbcz5Pv3xI56Py+5mBELKNTiBWOYP8rX2YlLpiRZ3j8SWhzuMOSYRGR+q7Zxpmw5t5gAQYIqy6v1TVWu+6harkJK3Kw1ISRjg6e2o4MQnK19cOE+GvR9jHGkVpleuyRLQssYytN361jZrCaZZ8FqJYjicvBKJEGH3Kgmi+cAReDv8Hp0Fm+MVUVl4eo/vkPeh293VxPak1XQXtQ9+g7MFYzVio0s5x1q564LizcHbb/3kXLNZcfQlZWqpMagt/Xh5e1igdOejv9mY1pZEgPk7mxd9Xyw1LxrZdwazkRLRpqbfhI/mEnSpjnetP5gI/XANTvAomGr9nUSGzKF5DUQuEcCh3zbr40biKYFv5GnZE9FQ4RJ8Qz0SXSC+ai0+b0zCDXPZoBVAP59l2EhRx3FSLbZWazFXwh5L0cIqY4mjaTH+TALNN6P4QvXoCpFPNfJNF1AFVldwIO0Z4w6Ny4Z7iil+bjwoCXGXMD/f44RPM10R6S2H3dWaRSpmXYS2+dZRCIZDJXJx4I9sGAlxOoQLe1v/IKqUdsIP3LQDR1CO92wk+V0OhQJcISlIIHFMOFEQC6KnEbxWQAsMSgpB1o7xNKzLHDbtR9WVXebQFOj2a4leOFK7kIbo537xUDCl7v46uqmgMfJlXGjhxFet0S5kg8FEVyY2PtIz8Br+FNBOtL1OclznEhIGDvCWNibguTB3Nvz+vSaZZEPLxEaww/kSIEkvPjs2inXvxqkYo7qBrUIS1S2bGNxmcjsecG6mUkty0SMDovOt5vJaoSNkfTyD4b7OZGNbqRtL3qjmOTny4wkIeyFbM6vHIG+eFaXckoJYl0ELdZ11rlt8311qHx7XsH1OFq8jR7B/PXI1DSjBUGtdlhq7jX0nK4f8K7mRqLyHErESpfjAr1o40M0TxJs4zDPmBX6Dq9Krbu/BKZfQncbe88FNakE6KYPrBNJnI420Iw99UhG7ir9XaqmBHjuGujPFa9E8rvunfVN77mw47qevpOLkIOZrTEfSUZnPnhQShA+av1j0bC1TtFJp3PG3V8c2PPOW1MuTob0KgC+Eh+lGtKEp/faeEJ1z6X/rG/S/rPi8V+YpGxyTtnWKWSbmcl4ZkpRjpzgro1Vw5ZL99z082vWVIpBqN0Gh4EG7pK0OgWZiICoro/k4BlvibA6QGWZ9Y3HRVOxYq3gSe2iHwZzmcHwCZ0fkRO92Ozp9Jhc8DS1VNZOZbmTThiIfimbzKIBJSjhhbWNb81nU43Rw5W17znKwJwXjPFXvsN2oU+kW7c2d91BrvEHig38qgPouZ6w2HvcX4uI/mIqNiScmtgQy1qnhIkA27Y3xnFRDlVk2AxmEqzhuzhJ/J+Gv7ys9Bizeva0Q6xgEtxSzvUS1NWHofLrf4DKW5h/7N57/1JvyZ/+umoouJ9lP3xIVKxOzeAEidBO0JWTd8Vx+46aD0CXzq9XP1oOO7LLCoN44tC/NDilDMo9W/MIh1BKZwdAhabAVrUf2MoM50xe3Vj/OzcUt26jXCVhsuiU0zGtc8pxMczy5lsx6aLv9q9avnHlG5YqmPtDUYrwKW8MPjd+DS1KrMdrHlhgr2gF1XimE+hNGrVkuVqx01jgC0Des/NT3NSinAe0qidcxHowK1diZWx4o+1udaZ2OopoFmQer5UHYjc9f7cTfVmT5R+g+JaR925qAnjEiq28BVHVMaSNKVhopa1G1106CJQlHpSKFM8lPTentcJszwb+VBM+puIHL28Qh1SA3ASP/SJdjBtstrPMwD4vCFiDYlTvK2YQ+ylplF1RGPuUVE4gD+bGMPI6VIxZ0g+TQWa7Ey9NPlEYwfYkX/HnybJQET9fF7ZRy5C8OJQe+yjNEZVYzc7EJ1m0HFDR4ktVOBPcVZI/UQRZKCYdEa3tcEbKNd64d6R/lbEIpp9pozKRq9YryRlnpf48Q/eowc6/9169h8lqvzUKcIOievi0uIxEHV5kJR0nD8MeGkf61hVGDUFGmoHhBFMelW5s/oLhRbKeKZ/eQwPWZhqJE5xfZep+AlpnEM0yv4xDgUgHkluw7Dr8xvYHcUcjGX1yFa3zIude0Fbm4F9exMdNgJaHOQL6WM6HSZ/hvWPnHGkGmK+VeAzKkEWdBaRKgzLAIeHu+oTBT+qZ+IEx3IqzyxMB4BEZnWVOtyNyOQp9yZE+3infYZqpKQKQKt4aFhtLXTfMjfNAWHT4AjPbdOXXiHgWl6pEnM8qi8FwRWCQwz2q7YPCy6vvACwLg1oJ7LX8FpRS11VOnSXqfgyNRVBvzokJ7T12xlMAO150llZrwmqE/v94shTeZiESBrTqB0FoxCqJKP6ABHLYZjGoU7p8jzFNp30NGjigZgxuYkusEpgOWBoMgcce/wfkWGxWZoaCybr/3qCJKf/3PVWHr0bH80hTg5Bsi6pw2QxvK53Hdijhh92AQvi18mI99gGCDBKgbGQrmxgt1lvfOhTwi5FAHIm4PFv6injO4RUxf2/k59aK8Ik7CXGEnZyKHbD3CTlV3Cw/MdCH2CSB2+PvFgeL4O+t8Ewrcn+5PoTNqco1zyFzBfnmP05Cwp1DKPvUIfzVMgFTPpRvsH3f4bjd+T868eGzZzm92r/Wyz+G8UW6DPKbC43mMEhDTqjmF4mA1e2WwFJUk7gaoaVEknGResmblHfFNHaxhXnGPxsFjmk9Z4caTcxH1wTXj2Pn49M1sf2hXY2r0Nlld659m0Jodm236/Bx9VUR0Anvn5tb0S6TSTy1oTAUZhGQyk0xyKKVHzLphflqtpuRx2FFc7lg8HS/3pJxKRxnF86bkJ1+xJ66+ObdzseoP8TDApBVU0Nw9kW7XztydHojvBL2eZ5kzVjx86PZmkDeRGq2n4BPGrc5q14KFpj6NbtSv2Ze/TjrY4SYrXbRFbyeTCWA0v7cSiRIX/lx9e7hCnrLnd3IyTlSEQNVJX/44kmr2NBdvE+Bn5X5q1c6tNLdE+YtNNu2+I8a2BXA8WILR8oWZ2GkhUHSdLIvdauAwukGW3fi7vHeNpuo6hmgJozR8F+xLO8nA887Lb5LTfXNEqHcqHOSN7pGVKt3/x3XnMmxZ1hiD0rE+/seU/HuTPyRzx5zG4sOTy8o+BkAwzvlHGZALwdwef5W3S1gDJAqa9QNWtihintEC+0M3OYiNNMQiQz0NO4mN5BhvoklmhAVzf5sXd1OhxvIVio4syUfo9KobArtaQ7K/Vn/rYb0hSz9bWhTETQD1kB/InBzt5MRF1fSeyI9aGJ3eZPJoVWf2VZPtVtODNEQMEwN5lHgLgJ3caZ1NOr+BmTi7YM883NU70yYrVpaNHsFAGCKvf7GtF6qxiOykjmYGtvyERgp4yNOdp64FkNbExGnjMYfWyOqPL6yri8WnT/9YN233bxqWP6AmYnYpZsTavVRRAS0v0bBW0aa3egErs2/BqW1S2l+PEu7JyMJfAXyQX4yOniWmECUPj5/JZMM7VZzTmltaIAyE7DWJw7TR6tEyqCNOMpQUINVm2qRz1ZTv7zYnSVv8EOb5oY4rMCOfbbX71FePkyt7iYdnBbxw2fhpW8x8WBCvCd1qVSGyd5d+oZaua0Se570oH9P4GRwLyue2QFHMuYyMWJZ9pzV+DsX9wnUlTcbTYsA5UZqtxTvC9vrnCkNpliqULN8AeFkIyNLFxrZjfr0nx1dMC3EjhxbTYZ1HmYnxPPRL310yduEVdN7ljHr42dtkPxjv6fH6sIfWOzHQr7mAN2O8e4ujeapo5BWrYDlgYFMmRbxHEll4H0NBN0F0DD1aiLHp71V2FfqY/rfAeyUV5H4tJPecf3VNiYox51EcL6my68J1m98Z0BW1S91x2Kg+ac71UkKrD+pXvfd9HFzL1sweoFITUFsOvnDpiIdyQ0Zf8Z2N70NB1jXObqqJmPMi+PBNTYKrDLXux+v7rg+CBDQ7LNNgz/5CSheWdDNaOpB7UFo8Jb2dBxgWwhA47MTiQWE7Xt+2KGlilvhS185ZtiqdKU9AVl+7gpngzeQBrmHF8d2BFKSDnbzeOs2mRYec4itJmicvAEPkTeIWor8FcmWqwzvZbQzMImsUig9disybpNpzp1GoByd7c/bd8zngjTp8R2XlN5sjvQfRNQ8dtVYFpPAorb6vqMA3hLYkERmAh24GizTJqhWjZkZhBCFkj9GTOcSzK3HlfyvjNKtKVUZBGVD9+5GJlwK0IbkEUK1EgECAWd9qKE1H9gkz84/qyzCNvXWj9sFBMUJh5aj7dQSHjxk/2BHug/9VOj5IrDNc2TnVO0k3NyI8nFzIRUSVZdCwsWaUq1xN6FCID7+9wRyUyl0uWIuGt95J5DfeLmQ34zLGdUsNnbKYQxm8JYRbp/Hti+ey+yv0xkI3ZGNecyfJYWkJPVMW2zfVpYZmYCS2xC83tKzzKbC6qLds55XmXZFxNv2ppjgndrP6PBBT2Wic6FpgRD2LAFhh/SkltIZduzkt+IC26Cel5gWOWrFO5RD7KV115XOsEbgXXDfXXbKPu/ZKB/7p2nsGrNXgpktcJvuelzsatsdQw2dSeQ9tz2nfDkm65t5j5tlVXKFS35ljUkc4GkEbGOuC3SzZXsYqXGWSO47g88o6cfyAG+eF8t5CzlzCxb9/ahhTGCqrgH5QVMrd2lQacEe0BWyutPbzJnRG1wdwFn+MLvwFcf0Zo97axTx6FuxTZlW/0FDQo83Cdl0AVPyfVtKUFgaYYkqfHIdVqo2pk9oE5Qw2J7/t/bE5QaGsHVmRyLzEHTo2WbBcClw9PtRs+VM+fg+H0PhwrPFFUPVFzkkFRXqx0S/7dn37vu6hX21C50stfuYtjf0TEQMrO9l796A1QoneTdDINTIIOBsP/76mFyaQqJ/xnx6GZ5VqhwH1SmMUFWgVdjNPSn1ClaqIkHMIO5qVUaH17l/qOxqpkdqEns1CfQPk2qlCmX82e1M9Ud/sgMbgsfvjNZ+DpzmE592PK6UugYQfe9OyljS+blX4X/VV51zpNWma2atlqcZ6JxRwJlXym3rltwIV0+kBcV/j6/VmGwoCb/m3X8BE5W7d+63Tw2rw70Gmap9p37LzWrxuHu0bGO4BgMwH5K7dWmQfWwzF9XYS6IQnUK4SP5zzpN678AyP/4ASPMmOy7KbozDd8xkk5wrUYDzPqZnzBE3tyZWoy9QNp+pnyl6m8ur1UifwJ77JflGHWkf7Qj8rdtkgqC9tFjBimFp21mvTKmfgMfwKWjyUNwAjfOa1jpcT1h7kjIzvpPrQvyOr3Syumt6sZJavmTYpw6dNo8SISLF9+rr0EYJlondL3Iuwg63GWMaBtGBKAsodoBfdLNvBUBnt4g4hY4+vugnvut/V6/le9yuHb1we+FiyGwFBxowDSVQ7LlFx3yX9DXXFpExbpYJfQdJkncEGdb5FfO0soiSliHJjNRxFfJKrViUkh7n1BZuAsLKCNBWb9byP1RmBmjezHWfVYv0HGqxIDsFoc3GhVcYrGOQlmxtf7un1ivjUcemXSN4NFEeNqUIkNuyV5Wdpxco09ftCYSyFCykW7T8k8W8QpA5BeDIh3dIf9qOvlFwTZT2dxiFir+VuB5nKSOVdlwnDTufZktdtrvZh7PQZ/24n5fvwqVu8iEO4CW2015spPs8BUNWd86uNJBPIt8Pc1w8qQnE2iND6oRF413536pADJHPXRgFV7rHTPOwshMGZqrF2DolPqASrbuaEct5pgXygSx9f9DJ2olGgiS/q2TGvknCQnB5u0/FvwOv+2a1vjy2kpQ/7ruDHQHhBI5mrnojslk8LCYu59P7/6zJDjOfCVtnNi7SYHA8AeRrX0upHsYAbciqKOWxzwMP/JG1QE+3gm5Lm5hL/2j/F0HORQDoBI6upoAdzOzzUbUfPw6iNjoqbqdKllnAZKhaw1ifsmRnEYIOONc64tgi+vYW+1E1Vchtr8dXTsartq7TvQIdCVHw5jgG/GuC0dcAa4ay6zTINLstit8EFXop8Fiiii+kZQ/Ox+zk4MEvM7UilOpCJ6BeGIQdJvrtjrUCOyFrZFoMlic/xv3xk01N1Li+8eXhm0jntkravMvXkYvrC+9fwGHECe8cnGFXRS1lOeDEtqvnLu+VhTZ01ZRmTE6BPTm+wUCpzC7iCoihc3/QxrAKf32XMmucK8RJfO0JvXtHTa4dnrtrL5Uwha7jUOrCkZrmUewbunhAeka7MkSf7qlFXgZS2bu5saJ+CCY0tN4kG4XqtOLXszudbaiwuZMJ0uJ0Y45KoRxEc5nWNLxKoMpr7ZNJ9SscT2TnjBvhWSG6/0YeR/UKyP8tv8qnBnniWsQjpMMDCoRLu69IpRdb/68OH6LKIsJ+TTPaUnyGzaw08slA2ay8XvLQM2RxG5HNPMimiFSPxek5DQ8JlqU695Thnw7yJ9Ye07jn0t9Vlwpjvf7u0ImyU9DxclJMqCxEHsxJk1C1ldtWZF/mHyZph7/ST7gW8qOt3XwuXdxttpEOaAbVexWB0Oi9z5nE01aA3YCNmYVgesyuXj2OvfR5KCtJq2yCtDs+sfrgL4HPpN4lnLQY5f7vbCvBab+3LRklxh87MyAAwhhHrOhgzHDWetHiinuASjbYWfNJq2m4oOgnZPIKMFTtpRbzr8WsQGrSP7TIy70cLoXyzX8QUGRXV0H2hfdz1iw53H1i4/xgtjFzD2u/jqB5bPyP8nUhWXDbAA3/blP/fAOCqLgTSFEj3/9Da0z3+/91ThLQ7rS/RDy7tI1RaPgXCqmCXpvbdXfpBvGLC3/dpA91rbrf6wdQWLedB/rcH6UYV78s+tiObgydLtJMdYf8lqISf6O2SpPxWfMDBWxqQj/s+BZxsipb1qDzKOoABTnsn+Fwl2NLxUsDYqz5+FB1r1NSwZ+3zYjI+d5uw+XYhizUlquyH3mxmoOLahVZ20y0LzsZmvY1vHu16+P9ZEqB1RH3VAnlbIiTTlwYR5ScxyifmxVrBClwHT0gKG9v6pn4559gel9UCj0/+9oJngpN83dipOhwrBojGzWkv1i59t/9B9lXJjweXCC5earqhEcWPm3hH8UdEGlhH1xsy2f1UjAiX6bsctJij1Hs5JmBQW2PhhQIf4/lp/6fmnZFjkkOS169GWn495Kaq3rqqI2UMhEnLh1+dwIsTOvK1X/jSuhXnZPctCCg9NuSztnJdZwx6ru76GBhFDJGdXTyiovscR5Hwp30F2EoebtZ0+b3M1UyOX4T6xbXlqy3V+TIScLO3z1nrEi6PgMQcjVhb616K15CD7UVqtHXhwh0JqRlZIf5ESHV0QfvepAF5b3bPG209SDNOFh6Yv7ul6Vc9H2DRIOy6fWd1a6idO7xwmoB4D8AnyLpqKH1T9l/G9ksl7pqeGQvZ6mKZxfqef5y15M1yw/hGYZpuEZqlX45u/NP1wMzw0Asrr6+/01eB6bN/iMFMufKSdmbjJkk9VtEUcPu0MuJGEvJtTpjNJP/zRs2cKNt0cfaZJCM+L0MFVbTsCreCmK6T4UZZ+x0QO7fBaNAT/bQ89LFUHLWP6dzIUWWJSlFDe2rBo2vuem/Qc90CcKJRvlngSHDgUHley/lgsVno46qaGKQIocgbXg+6H9RXmysxGdo8XxqedyaZGql5WYFc/tL2x43W8+88St9nqoyDiYRIahA/Vd7NxR1AMd+MjxXLoAuFhRpmcUL3VsYTUGv20paATz9gNq2Bx5MV/Pr4lDpPSWXNMU+ajawt7PYtcMuyTacNgH3Z/pDyIzkU6NJ6R1ivJZHtFgrbmsb4QP/GxvX2gJNmXW+6B5Y+hAd+QQDB9h+EMd0MC3kwPODPLFNACefC9mwsRQy3aW5JEl3cuY21R1MnGqerI93fHJ6Y/XWDw3PDDwDuRDlq3fUxITNlY2D/WzKbmoykIllSA+DBnrYAspAAlEOi9nYKCjfz+qmD1V5N2FJ/T1WZbYDUR24WFYGN4LVtWXpTgop5TMXE2wR4k6gvgbgxCtwtKhgKUuLUOcR6pBfaM6uXQ5tvwRxotAJFDX7ExA1PwejcFpmKrjq87TkxOkTmfkaCN9boz9MXQbAXiY/WnDjtewqripAkh0n9g/pFk+iqIdNX0WQx9eP6adtxpZgQK5pi0noBHYlqK4L2NtwTLQAWl8qn7gQRXCkbUonQYxEqkgSJvy85KBIOQP0UXGMPOnONxNGpAgDq//tFECt6eXbdKDbmzG5UvuX27I+rNtHHBe/Ua/bG7s1VWVO0vaedAiaNqp3Lg7qPblVJ+bG04HU6RBpazM+FjnLPiFCxuAwWiNBVa42xWrg7TlxOz4eXsf+TDaeIM7XW0TQ5icA+JwZR4vECMbmIA9cGLhPUzFYMhSG72MsIWCIgR0uzZ6Dzok9pYhlJZISrLKL/WpQvYdVDiEp6IuMs9p4Z7UsPF4FEU5LEtKckWE4JXy1R7AIV7+grU7aqxvhctiKzbW2nWJaKZABD1EFAgF64C8IshA0o62zRm1tjs9uXgF2qsOGa4Bj1KMzhDc6U5pDXc71rTuw9LKRq9niQRDi6Yt360kcteJC2F/g05snzy57NLkEAxqW4/rlqBbeY5yP4677T12JojcAibyyn3Ew13QHjabfn7dTSBQ+DHNHUd+zIkzJgQJkty1GzgjSzChCKY2bdBroJqb4rxFg3f3FOK4biDq3lG/uHmpZp+i73+RV0wmhpm7tcQBTSQ7QSCA67xoTKTbRqQ7qBG0GqPFx26TZ3Z0gpFahf6JgJ6rq0dy+4f0UNdiOkFFElQJhuOluGbPlELr7e899WFk5Sy7jAaRrrpG/AXiXanCVkNC9Hoy91esgjWHi8h4YbMminv+kaZrG9eYaX1CEPSEvRA/akChk1DQqYYuwmMGVQTW6Ivar5P1k8iFULo8ynn2vdZrbHjVZQ4gl9ei8EOeQXP2u8LKYxehWQ9nISeh6+/OCLqgbqKEKRf2VWCbauSNaM/4tcpXc5fkNWjYNScOh7xYhXGxluhcHa1w67kRT3iUNEyq/HTPGALJbOSYjWoYPDt4w+oKpQ/2/lXBBZA+ezHT8SSP8xXo6tzBatlhWO7L0wT6YGEU4PntapQCKYkfRW98B7mV1VC3Jxz80xhjE3mep+lzMuLlBQSFF58gMJnF7AUPTY1bq52WcHuOb5/5Wz1WMb1VbsvcoAT4Hfl8EoEaQs9Gv8BOsW/adH2y+1HTtRdkfvQ1YxbPX43VQLkOuHTXISBgK5ICYIh+Auen81EBEDKKDr3HeXDbXsxcyTbw55KZyJWQxMJU8wQMOUCUlXlWvq8Gb7RLjUsqq93EUZ/2a8zzPQqc/urTyUVfY2uSymqDtQL7oqtpRI+SKx3XxoVnemZ/OeBwKzc171bXRmFbU8X776nFc5VmdwCqUjiqDB8E974zvaC72+Gqq5j94jlR7T82AvkJhqKe0+fOkkXZbtSOV/xisSUQ6LkfCbHg7FVvmkBmIGfETKIX30IIlTNUKyp5NNl0GY+i3wAOXd12OLiyR9dfqgxv0VCftgfVsSziRO4ViSfmaRT7w5Fl6SZjlzKZpHrRDrmfBBMYzM6T8O+VSxJe3fx0USyG4+5XTMtjK7fKjuMIBSEJoamJMFRb/ZbPSfSBvJMjH/yKIX0PYJEeYeXtsFzm1TDsdas5C7XLXYrzAskwTrgqLlJ4vRF62VpSj2KHbVKl9pmTmWyTJSliaVGuFlYw6gceNSfD/5ZQwSIkt9EdjxQZLZ/bnVpKo2yDa4zeGYSb310Xj0X2zMbc50DYZiwNERAvuCsAojHuRFiXzBUOMumBIHCWUEmM1GC6C3hh+nFD3vWo6maDZ9ukM9BEjbOoOp0Oprw6QEw2MDhyL7oLzZc2kxBR/4OLGIIXBBkXjz1gdUyL4XKBCphY+PP3A/wGkt/pNm9D9ibP7c/ibR2LXnJDPV86I/56zcoyJDI6YjYHynrEejZh07fPqwqI2kAFxM8qoidJLZSbQI42lVegUhVO/cCqukZUldbN0drDHjAtaYOredBV9WfhswtFvQzMTdGNOf/KuSrnTqtab7Eh6Gg4LOX+izFYgIgc+ViqhCrjY4Km3eEaoQ2M+ZtuCjl2CZstbDpiXka5DkouBH7ZZlyjzAxb5+mGdnAa1Nt+C9OkPs+q7UyuYIMnLQ1fDnxeyMcW0XMsFFeaiHFUd2uFOeQY4GVIRtbi0QFQEVUVqKCOBt/PIMQC+WV1pCS0Fz/AUBW35o8r4JNw+GSTrohkUvTXHeCj9uLtK4AAAAAAWrMB7n1dkkN+KDm5Kn5m+y/kAj4WrfNeFQv0s6KPKH2NQESIpLVabU8vE3Yr+5DWgAfgxCEo04hK+HzLmT7IsYdvmq2uJdysmgcaNWoZlxhBoAU2YCB1Ep8fRatW2GjbDpYd2rMzu2JmL/d+4YoJ08Nu+cpmdURCwI+zyOQ8n84MUsf8KfbcF40Pi0omMtqI6XwL0a14o2L8KeGJptZDpC7DgqV5fV5ZRNNihtKwi71U/yZ95jU5Oto7YJV2vPZDAH4GacXxo6onwJ9W38rsXqS5RuaDViuRgVFEfNedxEi6sDguglItwG5TvsUqZk6G0m5JCkowImkS1Y3nslOJnTuhZW33cPy7jiCeAUqHsvReovk8Q97/p0atwoOerqSyQD3TuqVrPemp7FL6cFXZ5EUyfZY3r7iVrwE2zBkLqAtua2UMz4GxCbggj/5eygi4/F04xHHaUFOZ2NC5ebdoq4FvTQPeAH0NfoNRxA6O1PfUx+BughBi3Kb5gICCsbHepUWw5DsxUfCk6jATvc40OqEK6mbt/tyJd4jGZ/clw9qd2JAmnzWnXlQRvTm4T3qavaGtkghIdz3XW6yVT4LzEOfs5yszVkdH9Ox7QwkqD/cXWKdCwHrPHJb9i8pvw/aldsbAz4nJK5fdIktFTL6IDDG7f+6hv0Z+ou5IAsYNmyzhJz2fhkFCbL3n/kimZ1XMDeBNVY6fi1Xwr1/8fitTPZhsqiWRJCv3hIKxzooMqxg+wa1XpR3SNa3W5QSnVin6LVZZqzMtKhsI4J/bUha6fY4HgZ36JWNDtE3eZQCQy/xSJ7+BZqr30UdEhBJ2NGzW3YaD//2uFC8N0hDWX2EwNdMH/HiNhTT6pfvg+9ehg80CT9kcwUtU230uG7yv1nYrMgEXkfLZYgOZrqXu1w4FBkpiJlZRMeJdJgnG4GdPnhTbMAE2/8E+LmNcAukLRh1lIgaxAxK0GzhkYYYHbDfith4nSv6pXiQMrRu3huVKCnmngO16EH6NoaqQpXG2r2detOn5iSKZQl2zrIshFS+QA2Bim2vetsS2v+9tQ7Wq3Cbu52aq4o1FztEcvvH1IalBvN7NIwzRANExb/QPAs3R6dSEQHJ+STFsQ8+xhOUxOht4dWGBfyPP6nUogEMxDqEB8+pqeqyCfHQmzM5d8aNaUsgrBJAksGSjD5m3PEz0Il7CYWOREGg1OArvD/ELCxhaXcT8W+Nr4Z3dUXL4bqvZ3y+AayQXfUv4Dm8XF7jzkgdv3pusDnODEYE4D6iYIUabJSiC8fv5zWbsfvxXcfr9umeVgCnwLGYg+ohdHsQojsvzK/DV7N3CqVWqMvDLhG93O5I6v/sihdSuIhBo6Y5InzpuRwamp0B9fv7oovnOrSd5MOx/ut39V2rrrlPvn4c2xC3i9VjCz+Lo8Wf7OWqyGZrT3/UnxVHQ/0fQeMW64FW8ZLCEumW8625w8u1UscpYqvaNa21BrRyRmBjf1mvQ8YLo9U2juYDiVqenT9UMSg82PbfZ/pvNEWD+9wEg7IXOBo4TTuV9wzUVwt+Y6PhQK1Y9so1ERWcn1Xn3llz/VT+FSjc1DS78fXbl6trXRv/I+jaKPXyCElQ+k5PCx8a+5HPdQuexmPyIpk2tvRxSx7MBdLRBqvPZDz+WSzBe9VAYqyH5AUvHaHKL6hXh5vj4hS8yCO8NU04CMR+T1tWwX1Roqnb4ByXlMU4wlWXJJ/E5WXYUmfjibIYexsNP+i0+Cp/x250kr4G+uHoBt77h8YYVBuCSsBnagdd1njAMINC/NceME6mU8HKDDqaLf9avdOXXRz/9WGBXb2CoOzHTv21v6rGozE2UEFPi1CeX2m9vu3Y9+MjCq4xU2RqE9mK5R0wJHPseuS6z4wnjZTRezyttMkDmGVK3AoeqicpYD49LKmYgvl2Oii+VKJB8n/tNk5T/2kxMQiAk820c6HhEAYLz5fbgaHCokr+P5PcHt9+fsCRcY6wMVoz/RwhZgzTyc8HTV+zZ9v2Y6VO47Er4XGGAI2g4CGRi9c5An8mjGa6F/3XGx6VxCY/aMaQKd3Ajf0pZFP0qholxes41xWa27SGFyWZTx2WBUwWXiHqWkd7PycFDtis3d3AUHPmfVufV30i1lrRqPk4vh018ZTBQWoZf66aaT2tsZFMcJGUqL11Hjo7Fj7PAWhTKiX5kUBnYvVaiAGen3MtpyC059qDzGGqq9K9CPTJ8U3arOAHh3PiT1APwufpd8RZyhUvSxakT6sIHS2q4DcqCrBn0LUF5z6bzdEF6vAyuE+Zub8QyhozBW9zehNzNCr1Y3S2xwcyHTSsJC4sqFzXFRzlzsyHQvo2FRK/JivqCXrb3JkaPbKqKOuKlse/YKpcB5PiDAgXuiXtRAfQsPZuNrSdDvpAvj5OOs0V6IQzUshTJ0RMuujSpUL/sNo4RdbS+c/ymFTQNv4Y0WsaBz5ltGmhsAZ3SwizN3SvTNKlpq6xanN+Q458vx7jHa794m0ENF+hm0UPUZX4T3Y0ImMl+d0tTg5DHgaWd6dPdLqLkxnfXe5Pj+0lAxd4D/WSUgHxoZOiCjjeWrBCw34khhs4o/YWvMD8PQe4T+h6yJEwQNtUjRGM6vvoOyZNAY901OEL02DNbJgTCm2J479pfWYJ1Cu3UVxxjUUroT7bVc/Rb6VdS0SWX8H/bGYmosUp3GInPk/DUuoM28vNj8aISOE8+ysk6ExF1PM8dUbOIMqKGjVvY/476jiu4mPoUxNf8YUKn6YM09q67jJWJhizRMSFBF1exVr9pmD9LTiNI01GxVXYlC65bVCer0wP3EwkZ/bZfdvdFegrkK4f1uY1P7AQ3JGDkE6X5mkFm8tLRoseKoo7hd3fq5PWytJutD7e4ablL/aaOsQ3eYxTnXZ6I0dlb5VMK0MIgyJQRCjlZvJERnISOElwzibhTq2JmdKDuKQjCDP63t6dQc8u/J5u6e4SdcK0TDoEYnAi0YAMqlRlZWyUBIKrk/LXMMG3e0793w8JtFrAUuaqQ3WtF39+WVUJ5j4xVNZkclASwvCExXOERaBvEf/I7Ad1WLJ4OcLzZmIcL9WuVAPoMsr3NFwfGWDhHdjcGLIaIYqZl5adK6/O86JIW45a3OllNoiGrWYMMFKZkdeNI4Ob5t5ciQ+dNzv1sL/J0vCdbcYSA2v80GcyWgiFM/VtqN21oWRFKgO4T0jMO3qi65BbATUKTibWjUc8GCmYZyJw6gr5TR9jx71sbU9IFv8oGRt4FNAdmbLKWHVzoOOJg0srcyZyhxZMI+WMkOQWeiyq9eg7rT2hCMRfxDKF2KWapITcjkdotsaLMwAIDd5suJY/QsHmlN2kecrTylbf9YNigNVEpYaIV7/lUGfM2LLQ80A3+HR53SZxlYbJR5nEsq+HbXaCBd8XzleUDUCeFqsxJYb3ij6/S6eIGaXjbFywTA4ZAFAcCU3o9XqyeVPFvenncOeC3wJH6XtXbuj2WoY0LoiBNA/mbNUOyAtd8ROJ51dcgYCNwhs4qNCeVxqemCw3wjOOf3svWF/Ci2bC6dusXLEVS+iUxcdZGwrP8b75UlZzA15t7ExEglUVW2zWpn8eyvi+mpDoNGZpGRsWOeUFfKQ97ZSxVU/3xN3VFjPQPgaTWMtYKeuWgQnitkgYjPoH7nNQP030F1z06C8E0YEn+1aX6jp5wBy4EBJ7ERr4OaH94G44/4hbCa3iagX4vJu4YuPd+MKSq/Sm7Hyfuk1l5lHYLd2cHcXqc4V49W3AWYZnzz42fa+fEQEpzIyHnFYEVTzyi94aO4fLmXSJPTgZiNFnloTSv9xxFXdVkbWqwiac2dc1GNleei7du7+ejK0Hgh5aXpzklFQpljCQhHJEQGlUd6wHdH6eaQd0arf1nAzo2vC2Gz1cTXFcBL93lR+BmA9rxgtdqPipGo1gkgqHO/xhtr2m2ZirndMHekwYjOLVepdIUvvSZiceV6jSdjwd00y2hdkJQOdBnybO9cSJSbyaowVtu/+IfE6rEmDklFOnJmFWCfYKtZeFuczsWORMHRGylFZKA7hHAhmrhklhe07EWsYbHlWmIfS2eYzbLgIhlFaikzWQCd/u5VXg7awhFFdLLHEBCvCHyV/5tq9FJeAH3Gl7RKdbzTDcYJqdfyPimUA/GGTV6KPvD6yCiABwG/BGtJui2sGZsjhY6KxrP03hmFyMXQKWkxRn1pt0fIi88x26NH8h1OuvUbOqBjEbr//tANJ3jSqmPzmX/e+AYVuwyewKZaXu3mEoqL2gR/OpgjF8mscAl1eP/sfs46fxKlSBaEgGFsyltY6px4VX31xCbLr6ggiyZQCg9v3FnYs+6me/BzU4gKO6Me/RT9bpXGkGj1me/rTBfFy99BP04+hzORFjuIUWwVGHlRamuD02foZQGUUkr8g9VNE1oKKXao+bqWKILiJ2BbXyfu58SHjwVvN4nv0E8IfFAKWguJhl9EyB8hw2UgMUBU6g+7dJdhtEjh174kxILS5kAPRpkCRhTv2nOYMqIv1yVBcTxGbONPkH71XbhFLqv/crnafGzY3Mkm3hcx+gShyA7HOiW/YmadCBooCpgUEaARc47VBvPxRuazI3sBeZwB614Pb4FlK5viaja7Acm6kK/8tjtJbkzfISTMkt3iep4hzpmWt67xE8B1Orm12Q0KSBtUJzyqjBzMBcIBLwBHJH+Q/rMzw6yQQN0kXNlJzCUGLaAVfhYxXGgCvpr0pn4It4fN5CrprWx19GWDOtk9NvhLFVlH7vNp+4nGkZp8h6meuABPm/HfRz6bK5inv4VyMxiojbhA0BZJE4qkDaci6Fx7jkjnDsfuEw4HsMlbLKGCz8FOHSqYqEGiuW7lenJG2XaiNZ7moCqKEP7gGXUDzIbZcIYJhup0c85x0nrs7NM3eCA9mpIxjzFjOs4ZWJlRKOSWLyKKKkKxh4B+tyLF1zgpnwoUGkq1SErnoUNt5JdXdDGiAaZ/iRAPqEkQwo/gVSSGtwgFtVhRS6z1dClzaha65rA/x6fO+G9qXXjWwiIb2KgcXFfJRcvqP2IyiDRX+TGx5vtMBgJiIvF9YXbCvNzGiauytOAA0brW7fLzL6NwwbxD3vMasbJhYevncp0ZGytLlbOyfP3RWVHQ0PMQmch040cqNTXS0twtwdCcr7dNAxQZv8mqDqOU0oqQPonCYcNVcS7PXHRkxiL7xO7KWLJni8fBsspbiU4lODxlp31W9VTEkeT4TOytvPpSsxhYAxUhuE8EA249hdkiBgBoUgRDh9nNxtS87CMNlz/SaAmNToBxbDzHUAev1oSD9vaN4GzdqqzPO7VGAr1MhTkitnBmdvchR5vg3NUnVRbT3NDB+YUrEc1G2V/XFC1U+7tpSr5LlvPp6z8hEeJpuRTA0NVHMmJbLD3iTsJnIiuDOP1Q+ddtsjrrviWDmCHvma4ObfX0+0nPi5RLJv98bdm0JHTnxtY6iL3xbGZTHfp0GIqxhibq8I1K+gCZpOcZlIi1cmHYuRtxPHZOxGG4eGMs51XkscY9j9Is1Rh+hO+eCknpZOUevHmuJKk5q6SoA8lXxKE/WYZ/u2DSsQ2n2xM35cAAr8MoeD3QK5T/APMZf1rEHl6i5ECVNtPbMPwKrn4m7LbK9uC91DwmH5spzk68wqlOQKJlcGW0umXtmvdPNvFNdsaBIKrtvx8pREMneq3/lqYCQd98oSOEiMtbAFdjvTQIrFFOy39AaEyuhl8NZyfl+eRF6hI52LCOEqGoYq7q3MVhY4Am1tSYXW/mqu68J+HmswHQsKzhMqGv44LfbyjqAP3jIUhA4yFg6dvej24XjpKpHcApItLpUuEyQT8/HHklcxpUrrflh0vHwMeVm+L30uDF1clnz6RtNJqBvFuIbPbDo6RJ+csUSEkwfp56gxSiBJC45h1A46EGrrhV52pM7/P+IBqjqvJzPCzOGD1syNHMXmoI9oMvw7ZVoWveTE3DWAP3JDz9qg43xWcnUT/G70deZxYx153/HnLQKMJGzBXddz6kJDHCHuQMbHjaaJJvFvphTbsJlZqhuizCH5NrI/2ODpasSqcshuG5aKxuy3GD8zjCpR0jYI8jekmH/6+B/u5sh8RGdrjU63L/D3tdC7qtJrUgRNAvUT8K043NyORyEzihFi6/LsLouuU3oCQFtaR5KIe6BtY7aYKFx3YEE4+kYQ3+3CaI5rCyxXHqfJeM7F9mTmnh1xwngtQIBS1+kKihjfOV/UZYgLCnSUkVVakcJsQCzTwR2WczEncYEA7HyXdqQ6wTaI0eYHOWop1qZwSuTwPk3PBQ/SYx1Nv+No4utacA6jeDZHn+RqnmSHjOiLpXZmKSS/gr7/l41JpnoDnUHC8seKYocX4Udrn3IwpX1l/TEo7faE4lIPCHXklm3KiKsRlf2ep5FzUmJEkeq+hLXWYZ/klGQAYrz2ceuuIFCVCRvb5CajN/yWp1GTAp8LXng40m3zchl8H/u6vdzKRv6PPbN33vIOjyiZozJGvcONrrnJ1g5c0SvfRmC864aNFkGJqAAdZULC6XflxuIcAu4ji8hi0XNoeravftoZSEHBlRYWpSlPmPd0lF9yp3t+tEWjMPYKdTla8zD05LYfTghN+i5fkGkRXtH51Ohn3LBqu5Nx6cOrbKNlzO8yLhv1f7kGxV+0tEdGtFmurF1VgeamK3oFZJwasNNLdwF8qwpy8aY2BCgg9LeF8tNUWRTs8oVulvwV55JO5nUJ3cP6w/bumC5OanUubTj/8flKpcehZxSGVS1oTClldmn/sc3B5tCPyXEnduFhmTbFiVi4+zeCaJdt5cS84AmQJbt9DT1Lr2XOVAG7mVsQf6G4yQ7hsPJPUIvNWvXfP4rMIhFekzPNNZQK1PyXK2OhFJ4NzDfozGbjiJqhsVf4TjfGOeSYI/tlWsVjgn3q1PGRVXNJ+A1gb7zcbr7FzLAUlAo4V0dUYe4UF02dxv10kilwLibbDJUC+iHTNpcmtKnz6Tc8BgRp1lVpXUneHDCq7w4LHSDtf7xj3xWkreE16chuAYlfv5Ml7DI6QEGQSpQWGG5EEUs44kiafbjkl05pH4wUrCQ5JOu96pbp6s48iqSP3sKh72a66R9Ebhu1EMKRC9kweGA4fypLWoHC4mzxNnIL6eUmzySix0Fl3Nqz4KyMTNKmfyNSLVZlO3ayh6maDxARiGjukkDrGEXMNI8GTISzNBLj/mnG/AOQQjY0wdHq39F7arqBVqTzPWxLjcnmpTtk53jT8K5VyavNI3xN6Tt/EYvZSXmvFK861uj909ioMdUUTHEV8V28US5NSgcsEgVtZPYURl4F0/oOVvQg5jpeKL3ZmapRmPgQZOqNpt26nJPEbje/t68bgPmbDa2y2kDhSmV6VfKOQroRBGK/WiY6H+ntSfyH3ILQbl3PAyMYeyDA9FT7pMdSeY41XTCY1zP7N2/l8uBvE+sAFCPQGjAPZ+veK3JzyCvtuTV162aqtS9RYGsqeMlps0C0kZP15Betp1UEQrl8SI5w1nIGlFHEz9BvbooJJlgNyDa+oOqWZ/HKFsu5a2RMEuvS69PlS0+kZp5bXK1G9KCY1SKG2CrJyHaoE5RQ9kDp7XyecJNK5cNRA5HnvLRk9tSEl1nmKn5eLhP3WRgnAHZL+xcbvdXym5/TYLecpAYJof4/ewX8WO4fzeVktiwS8SnuoF5k3PEIGT71WsTAyYsajcqZMHL811HFkb2w5LSV8oxeUfUCUTrFq3oaQRQ82LzeurKU0QhjnLYU4N2CxGwgBfpRvOmFFJ1yOTDZiMHLA9t3Rb+DDJ3fJNlFFiv2tUmxFMJpk2hsQUAzy22q8xpO92+bXXsrd+Z1Q/OWa+ne7E0FrRT7uL82Zvho90RHgHaYm9ilS7J6kGWsOkpMAwZMYxidyoQWrCRaUm2sBAJ5C2DCQMcIE7PBrGoNUVAaGeMYjW7u7tZvtDfy8U1YP8K5ss05rFKZ1s5qznDaTLg9bFgRfl2bzptxghg1xh7xSYvB2ixeMMcD7HB3c3K3vCRg7N4U5c9/UNJAJmSnoikDvqDhxiEdr94jtza8QPakXPVX9wAOd2T17/Z3FNzBsMhpKCqfihPXzpp9rLa6vSaAVbsy4OD1qtIf+CZ8P8HzxUfeJpZbNVhku8l0gHJHJZvNm1Z/W0hMhuWCyCg0MnIzx5W/aiEGO6uzPutz2swN+B6C4ymwgURKCXxd87hHTMEjyuM9R5G7d8EQW0n+J8dcJOXpLCrWnACqy2+V/f4kg9QXp5c71EvPIP7aRs6QtRRcATmpfQfoWeXUw2Qi4uAsAlFrmR/a2kKsltQz4HXYobaOPwATNZmWZQcrU/Gy0uT4c2RFXm4dXsbAQV0aHrNDZ5vMOZ58QxQsQ10LibrwqEI7MRaQkKnhyJ1ybiJut+GSutQIJCgY2s66OuE3h4bnAZ14lbcIFKInmTac81Asnb6lKukpkUawS6dpfR/apsfbWxZThp7S533cPb1KYjSYFQmzWjN7MgIkv+1J35pKVrdumEjewTqF8rTr67xkbWPhBEJWghozySMWMaCpsGGzjEvb4ypgjnbaLoRQn081V5VvOGEO+2+oifJQPjLbrot7aMnUyNAPREQa4x6FCPUlMRCVPFdG2YhSuN6wXavy9r672p+LQtlXn2sYQT4ndtHdzAL83zPqz0RYVfc233AnoWrgwTl8vVW14Vcivk8+wcLb9s5hchhd/BWBfuE/QCfYT8/lV1oiil3wzE0aRbLyviN4EAAKYh5PpnX8L8A5ENlEf98JmU547prrAykoHkdq9SW7jGxP6qJyrA02GZeEOhrxVLrSiZRm6OTTo1KLlW76u6lEHqfuB+/DV0Sid812qeZeVUxSqzvZ8K4pX8c9HNotjeJ6KL0l5p5rhcxmDH7+FBfQ+/JCtLDjARnL0PTdYLo2JCoM3MDYwUVesTeSVtUaDPTL9I7YAfZShbfacPidwNHQjOL8hyS8Jsu5YdY/ZEjZAepYO3ZCLZI6CFmLFoV8SyGKLtTFloUzFE+1OLLi82JDrQ/8f93gS6J8dSDvfbQ4jFMBnTX28+/mdfu14W6UMW3jqSNSedQ97UPv0IKKYilqAesx9F7nc134K9R1SO66SeS4wjNhJe1jdYPENloutHXUFH7MyKDatmYbVHr0HxFQwDxIufp5De10nBtiYE9a6rNakvUR40+Qdud8iPh5NOwjvJzzTWGsJjZh0dsG3RjPnatflOaz3vApnaiTfdpCQxteUPwRGQ0NS6FIrlvHMmJzAoYuhAsgXRFgc/A9gPiY2xLvUlHkntBB+dAjQIfKEa7FoYumH9ff3gC7lKb4p2tJjTGCWUq6wzA1kDydvR1lL2zhL2p9R+c51ayp5t5n+wrbMInDBn6JgoLLoIhL4bt3uZ5EppWJXSJaQJaExJ5J/pIs5LsY4KYTgYpNexHxu9LgwKfzfYLLcofN/1eqQRizK6g0Q2T2PZ/flAQ4x4H+smDWCavxvcuNni7s0VEu2H58IEzSsnlEeuHZcweuf+yxSyYZbHWVEUAn8syTgiy3gltnsYrO7eWqp18cjDKHg9gc4RTc4I20dnHNdp6GOKi5O113z3uyjBnpWjQGiEKM4/yXEeWITE7lRExcRtrDeqX4gxtlKfbEIC7zInQUeHMZpUjuWkymA7iLc3p+Djs4X8N8QvXkHQId3bfP9jARxF3FmWSFphq7DHWXVBtHP4IIbjoCZ80wr1kWaHodnsYtF35Bp3P78iOIP09t+7TAjmCr+flJiXwFCG0Q7uE+H/nA5HOOV2zXzQk2PUpBULDXs7Zho1nuBdmYiJJE5y5CmWw8KavNY6iOfPhsEtrHVCfOzOz8fumVI4LiHNQteUHEvUYr24E3fTc6gsZsSWvoYke6BPXuJDwwsQ4HEzemxdN1X16QWEvTjzRWwQt6zgPwzH+IXaI8LxuwLAuugJH4dmJ6PSt2NjJpktgpgtSh2y6+60anmwwmyO7cTCwda25D3GNEmlx0NFXVX+6JDYIB9auvDLayfsmh4wOxqyzOgis+/wQOSs94xj55hpvbLXwGMp0V7IsDwF4EbyGhgPiM3AOFPNd2R4RyXjL8Kr4qJ0ORBlt8moFPqx7w7NHZuHrzqXpiokGwxROzFAjFCoOUSd4O0iroi9OGdaI0QrfxnayTAXNWzIi8swNXS2EBEdXZIUBTy5goGHz1/wtZMKC1hJJkDYWQqjFGjzbs58wObyjMN2fi5eygVtGqfdMfl4WNVZLSkK7cucfkMN0aqiCg0Hk2Jd8KzUsmFP1ysrUIxIFXbQAIYT0Dk3YV+dSj0I8WeYBnQr9jeV/AZ7qiTLPYxhq/AhZuiQF4bPlAA/oMRuv9cQ10Dxko5V0FmW0uq17/Vksrxr4tOOadcAZ/MRQ5fBYblt1KtzEGPW/mkq4HOILiePVHUcGSRDS6FU0BOZ/KRoNSVUGFh9VLqCZfoPFH7VqUUB5HjxMXcbfP2fy2gzSddHo7BHg8osW5XlrEP3Z9FUB0Cgr9razDhl6Cu3G8ldDyS23Jnyv3QFfnrkEpTdksMrXw5zw8OUpXX3i49evYbv/JL5gJUubGrxUyILHMFW6suQcm/5LyzN0m91vByhZ8BMcbqGIZzhEuN/vRmtRMh5yFmaiU8Gn2vJGJhfQcAikwtFq+w6aGTAr3KMhb2bKHQg1EW95hHFvfItJOz1SkyUp5Ii6N4OE/0Tsa5/0Tfsa4NbrwayhUemBewAlx+QUKAwawu984M6HdIll3DkNY43YemGbEfBdGZwPS+Axg0YgCVOIAWqoViUy04wctIpSiAKQtWZ6cvYbjOqI8quAEvDphZeCwAARBSqhRgeGZL2s/ucxgx4evQwuKZPkcVgyQ63KOBuebleGIFgrqbsk2eo+5Byol5gpQwUhEZE8c6ZxthfiuzhE6ZnwzuPEDnZuLUZMM3nem6Ibf8JFZ4gi6BlXcK0d0zX7Ulp99+WMH5Lbwhz2jl8TVl9iHubJr9VxFKQFDQ9HPqXDUVtD/mN3QJgRNX3RMHZM5jmsxG5YMGqZhlmDXtnx1uOUS/8Y1qS+4qVMl+WrPjNT8Rui5ObitoLC0lp/rxYBLekHycmHW7RCSqD13Z7tMGqtB6Eybwy0/SNIijweyFgxbhsRz/kJ+VECoypv7IM7tIl3rdPlT72LopuwnDZavsXhLNE/TtjDT/QzxDI1fFBzaqLf/////1doYRsuT8DlxpsIoECL48rNLGXCnUphCx0B07v6AUu3PC6E1TK4Lk3cRD+W6022QVPJzMzaTGHU38ES3sKiXaY25X2fsMt5JMj5WwiVPNzK0HVoNkIx/z4U+9753APP+8vVZC6uGzP5/HXHXoJmdZXMN8eXuAHTyMfyXgOS17DUuRsoRrfEOOC5R7eA/2TOH5oNdG+k7Dy1D88INpBDvXypM4ZuCxqQJLtkm6jaHKpFyOSLPVOqVz3vFPgn0Tt4AbjxWr+Zp1+6QuIcK/CkCfFAwn/KpBFYYVOP7UGOKrZCpnLSjOlC0Q46UFbDlzdkflUSy4iQeimx8eQzalMk9lKfeZWhQuusiE39NMrbl5pwBS8ewsXomxfeKSz6znGFiyhjb8y9ZINGCLl/7uN7PzvUiAxImVLVYOXB74n+MiEEp2OubMj1P3MtIzsbaJU4S4CyEBQNEFVIIHOu9e2JCzZNklNhnIOkV2huVsFVEk1+71Jkv1IxhpIy3oAmNM/VLmp9kyerXjRtBKyXBswfq4tgWN/Jl/rZcXq24UgyMdklfCSj3Y0R0uwWKhdzy5bpSN1lNa6NqtNdS7Qgfh7aOqthHTQyboXN7kRrh4SGpkegKGzg7sNfv3TN0ZqYOElQ4SAcQxKrdSs97Zp7Xw0YRnGOSV2xfXE1I3OxBIaBe64PCNprqWOl3KFnIzyvWkN0iMSMfQPvhiBRmYdYU1iz9S+GXIKfEmO1rBNv0PZdUBX+tTqpQCQH1Bt8Xx44Zt6rfU2cS5IUtTmu/i50diTgfBptMZSUbDsceLBaco/bdjjLDvTYrE9SS00y36Re8fDvbaHQHzZv48vPeqS11fdIshWB4UiIYKdjc78uJbcpg2+CvpA4YY1MYQr4lqVAxfGtTR9ZmeGK5JbooE4RgZ/NT/nhm5me4wBdqed+Ja7GvBiK/dorJudIm+nwkhrEgwkajf4I8CbAHMCHFeFqSoucOAaa1p8pxXmuVZk3Ro6YIz4TlSadURm51LMxc3oCv1d6SD7muS0E6ACrz6Q4BQTnlXftxNnmTsNRMEAlRfRjePVZ9u2RQFuB8N4TVKTp4RZUXRno97wXVt7w/G8x2MXidyU09GyRffRm+0Fj6u9kCEtl2U3kbE6UY/Idq/AEUD08NLuBW2Acl7rIEfj4h7Z9czT0ud7efVUpjxGU0savDb79WnmKcWiQWNCN5deHy/mfV6L3bNXzpl6PZtKfmpa4maIaM/Wv0Trvy8nc/14yvBLe542jyTmLSTk0icc7zZu56wmi3GILs3NHzqh5sRlwTITKVId/kD8RbTxQKcSJiXzrEgEWJQyHXB/y6gTACcwz2JWB4sPbk7yn6d72IIDdIQbRwMOBuWUyPmOnIf3ebTZXekRsez8UUK6i2TAr9EVZ+ugFwN7+S3FzPmF83MffUYYkrye3XD646jxD433yYhNpyghONsPUgJcnWvx+fGyyAz6sa7n+1HkgC1SrSAbeoqqtq9JWyKBkx8wmf9PvhIg8ErG70/fOc5SIfZLUCnsjaDpXHXaapV2Tu21X8crwsIiXj1ZHvAcHHY9jhnzg3OXkIMh75gHIqtpgf29CFf7aev/14m1JY1dE4KCHjPV9yKNU8h0P7+Uh2UlQMSxZrRSz6mvWH9/N+EXAV+Q6oImJ15RVgLUyLXvmWdrvF0njiKvCGfhC5BGE6nzI7vt/yhX9eVnJeun62Qj5eugE5WWm5Amruzh99YOuSqMV36FXTRJVUdQMWPdzLIpEIBn0RSYdVcTTD7ZIZk3NVSZREJa7cpSaRJvErCGRjDr6AyP06BCpLrkZTnt/HlRw6XCQ/5gJdIPTJVKhhucORZQ8Yqn3nAMxiOMLUdIjZ0qVLotKZHXd2HekISRuJ/kHHb6gl4y65f5vggFipTCbjcgK3WB6X9IGoMhsKVzhaT9CoaaYUIlTveJgI/OZ1DXJdfbesDEjwMWjrKck0I3DkbndHAKiA47dQ1zvNLbDaMxObbDpzQbly5JZcv3T9u3HyG3mWgxbzqpnGAqh1OJvLq+++UO9ivsFHfO34o16jkyr/TQtRBxTK5sCb61imBcxArMGThgnWyBpv2bBkcjYl3+VPi7jSn1JlNdKKAI5mWBknaeZha1IFb9QFndhm4b60SO4V4pr7Ba1kieTp0b6zrXXAV6T+qfNQpOV+dWLp861XqEOAz3DxJhUC07QmRzWTn8WvwJFRmNZfrErUXQaOSSAw5i/008hIwHxEf3s/cBk+veZRyGWxvCcZQS8hs5873zkZhztbY8RMwWUTeu4CF3CMWBIYnpxwM7vXDIIJdkGhq5MKnIUZMBmfDVdnJfOiknmJr1rbUVmnZ2fqGFYLhsx+z+gu76+kV8WM2lD8BSJCtXPXmv0mklMUR8wfvAmuNcDKpz+0DRs5rMw6o0bEZAifFmIeg9uEz/pXAvgLDxEMKkgY+sfwzUmndjIVX+kko11fg1bd6N/3h8rZyRspuzrGrJPne2UkqewgfoNY6MbF9snLND1W9paAv1LTx+hO1L+Gu5ii6GZfHkZZinkY7aSDszI2EMcOf1H2T/gdhdhdLVnZzlXfFhBewR8Dtk4JM1+wrRX761xsBMaXritebKO7d9/Q8Xn97yGXsKARcAAgQ1uGoc5+uTU5m14XsiApMH4PPVdbUwpWeccxLZytIrsDz1FToeiP9Z9fw4TM7/tLGHN33KVLq7+CoWAbSHiJMqbWNTk9xvf1WXQElYycnSb7jZQrZtu/C6Ruc7iyAtA6Zbril/pbDB6md34pbCs1lcB/SH5S8ySDVd/hEkZ3EvgY9u1lPtjilSJg6hTuH0KsAnMd9yQtbYqlipyiLl/Vm5JgNs8sD3YcSHDL4i81eWGbUaMoGrokAG9DQAsItM9dAIKTe4MjOhBZnNPZWf8JnCleVWlarg4qhPB3lIVHUGR6o2zTLLvpHAGs7pgGdnA2QfNOzUmz5L8XQAsT8lAxpoT6UCxh17DJ9AvUM/wSx+/J+ZaAvN7UV5q5v2XqQMwdvIgUl8avp5CUI4/BkpmpCrChrKvxLSnsBVoKojjpEmlM0pV07cPBAmXW3WuzJG6i5hQKsie7RXzrwFrKmejiaWezAWHMxwv0jey814fAzbuMJa8tb9ZmvLq5rJ/F0yanp2QNB5ywtEPGxLo9z3Nen+MlMrEE6vONe4oJpdVuWlka4ntcT9uyYgSGccfapNzXs4jOo7BvkvpaCRn3TLPQVNJhZv27kAf5tr9aN4rFVHlTu6cXc+NWU3kUFVSwAgXUC7RXoVlebS6zvhDdh6ARevRWMXfVdjUwLW9ccKjzNWKQI85lYxizQ7O9cSkeZirA+uHEj0aFAtUB6EBBm4u6uoqYE1WhSA+U0a8EGR1VvfrQCfI0UDglTs2pgtTScO5SuGwOlJFp1YQyN+w9zwr7b8j2vuLuTXTtK4RdKuxq4CC9yBeo2PxHq2/SLN77iq7fl6u/rvFV4KXXCHA4krpZ3TKtlgV3q2S3BNIl9IhduPO2WMHaY+mi6iwcJb8ZN31mrInJHnb5GGFAHFTFAac4mUdE3ns4oq3LetnPfmn8QCU1mv/3pnutVG7zIeCnmq9FgIW958lKOEdldEvA6v/w2SnZpNCf4W5PmpzbYtunZQzuAOgVfAWtn+5b1R0Y2itNDhzFW9wKeXqKq2pxdmRkR1fbtD4tlD0Tg6eOO3c6vf24H+XvWK/3cflDhXkuetjQQc1qfUxUFbQWalS31rDnF2YbLyxE6g63AIXXoF0I0P+W5gNDwme/gCx+kcUN3s5TgTTnS5sfNnJRN7ttZ5BnNQ0YPAK910xhr81ivE/l+7RSy6eiQQ1i4xy9O5PmerPAUYKbR9tZPw06bjgWTZ9hOHKmuFdEaG6mM2vBqB+/p284WDYejwfzBUQhKNHgFtpi7y02IBt/6D7SoOAXy10ZadtThvfysIsjCvPg0IE0HlU98uUxJBZKQweziSTlU4LRDnNgNfLbGoxywF0Tb1DD+qWm3k9JmTmyt3TzG3mh4N675DFmK/mgOKvc55jCUn7lxBufMoTUVaaiM1UeRqll2yGvBRCO2+E/vaSFvfMom1bLcEJUNSkJZoij9oi5c+EYbAEQoJlsrCnHyABPJf2If+ihyqa5cyttLgB6DE/VCY3vqEllsjQFNRlTjttdjRO88Tzn9KTmWvNYUq5cEuG7xAiNPI+vzBuNj2LCHiEmAiubOSFAeETeOPlpxqalmTfSigtmYbOHvKQqjPzeyk4vL2yMULTQhxcUqXCCX4i4FlUPS17P0TVc6dy+oRZPB2T2EnERXp3Rd12EV91759SS3XkgI3JiekDks+BbA0oEc42nJahoDevfuleKhbtk6Q2O/7xoj65o4vJ26zh/dtfYg1aCj+7v61ypG3TrlCdesWn+o1gqP04vxXfFYmVgx5qUbyXsy19I1Vdrxlqs+vkMhSZLug0JclD6Y71tnPcDplyzvUMhbMEEjDskXowq+531/N7ATDzyd9XyNzSDxeOgAKegf5cl3NflJU+aF99K0rRk2vJKi7g2oDrGLl5ftGaKlg2pHgQ0eOZz9qViYgXy4wZSGPFJwGs8y7QkNtuvoprQHTgSyvEl+GOJC2vrs5OlywCcB2Ec1X4V0JS96WRVzdxwy1J1/8EviaJ9GUYlFcb8XW7zx0PUMHeQ6NXZnzeXed729ttxdgQRHSTuNLfKkU7gkg7OmGMf3zgccyQlvltBdz4LxoFKEVoi+cZyVgTeO35WxRjQxkrUVt9ajgl97lgEhUAEtNJMtjQRbZ0I4H9PkL7eyQsgMloLmF6VfvhMtMq7CCTIflOpVGAoTsNFL6sY10feniVMD8SOu4pnXhT8ZJpO/FoS9lToVj9BFMDCpax+bELBI5f/rU33WsbQWsf0dzIFEZLk67o6ElP7QzoRrJoTiwxKFAbQ7GNKJMbd5v1WDdYPOeeWgXD2s2zM4otLiZJ4UQzprYiODJ+TSegzu7ZLYKQ62esIbodvvvFQJ0x6UjxhGoFD4BdFIcugezfreIghei85N6q9LlF7ApF8Cc+/2DvIok4Ind2CPqjnIIm7qJsO7eOqVJd8rtXWI3VYCPmIWcYme2AQyJUeUK6OfAdLzZqjebqrWkIhXHmqzuMoXQ+2xJl+jltV0PrlRTNLIeHAGDpY4g0OpFV4V9c/t9firlPeB2c5mBBMzghC0/Bit0hjdTrd3vNbF0axQ0NhV7IGPfDSJWkBRmB92KhNa1D0BsdFU5YtpowVfFYhf5kuo+gNNM5lUtC0FDdX2Wppi40MNq1gJq4oJbIf0geEuJIzL4jGyq7p9OGRmlVXKzi9cEyrz1PKcG9XxfLonnQSa0UGVIszTraJbIzHgKqa+6W6s51bx2WWfeQ9bQQnkASm+7KWcPHDzh/2cP3jwOBjDbyhfh0BwXu74hr3RMLZRoMcc9/XcCTAWuxd90e48VWtTy0HToaSdweKYK7xpzGjZbMTrlfJITwKjRVITzAqeU+EGm7zGT25+/fkIuW2qR5vScxxf4ht7SQWgtlihUHW6Bg4OTFPFqDbqEmxFUhusdoQPN9v9e/qDMqFUt9gwl+vGasmFmg2FVsBNcQcgZlhuzvvwVzt9IhFWOzE74QmP6KLLc1umSXnM2a5NxqbOpsxtDzdBWEdGKC3wHSyhZvU1pynXUefkBywhn9xSVxhOuYkfUnOgpRK0JKVaBDJiz3kN+mIh6VqlOflZxMEJDBGHeeC731PcFOgLMz+wLHcjTSjvJYAeaxOcVBDHIdbJLCWkvhief2Mn91rOUqQNyuRVwteyep4Br1QhhzCJOm8O68989CBgciS6zoVnjhZwEPf9W3KmKy7tldaE2yYbp/+WCk9JPjoISauVJoWnYffzkfawvZliHqgax7Ye6wjAz2XQJ4tml53LhcsljnEzFr5hZSncG2qDKup8r31WB6ouP1l/bkVctneBZHIdjsHEAm59gHtJ5v/tnRkhmgLqaH0yoOu8KBLaD8cKnpO0MgjwtBv1x7Oapk2MvdK7TlLH01DPVko3YODA1LA9GIWIeMma660kcdDXwmZQrZJFyqHf8SfN4gmiauREx4wtKwtbcsKJM7F+fJ0Da/ACh944VjOHBaVPN3xCRwA18QIcgFIzPWcacCe1aEtHvk8THNW3+z60ML7Gj07zTeL2LV7kiXrrbyaNqDbx3TCqyXKfaoTVAK93eFgnMYBf6tRq8gtA414v0NyNvnq8ZdtIpWmXqlo76oDawQKRDYKa4FRp+0VehveqLuSOkniRIIeCmln0GnNCJ1om5znqMxY9ujUupxPAVpIFfdoOUNYyK5nMAWxtmRV3mXSnjxPgF21KVR/9/gPNySDc4B7qpm9p1V+SpGkPcnnTVG0wqyfn0khr3DwPSPNlTYdMynPggnTTVWAmKgONo4ARXAqaXQCYarDsYokk/ug57f5JubSjPruF7jAIGJR4/3b98zeuVZrYVg1p/UCsNX+cY5hOhcXV2hdmVWXgz0Cu/OyTudTF0zSq3GCKjaEmtpKs3WdrXAEGkF82wRoLdi5vtTF3SFspzCFwjCrWvZbgmW+pbqT6nIrW4MG+N6IUdjZ+IasRngKEdhcV3ernTCyc6OoaWHU3ZUEr75g2iRzXvRXMBpf4Jp8mSCN4OFITsy59f7Iif4oZxvU3RpTvb/KnzRcK2iBHs5jP45Elc7MZLNwAbojI6shTenGGBGorq2wjOcuPB8G9V7ETzhYZAM8gkOo6Vxy2kksdPxoDAa1WAuMx/d5L4kQ1EoF0DRkqnPcYVwpRa1pbv2Hv9zeNE1tgzYjlfXgwmmnc0o0wRF0wWxJwMcnHlS6fqcuExPfU6ghfaMxJ9uqJE4TJPI6/I+OmZr4X34Ykso67GPMBHO04u20UdjubDjSVmsGWXlo3aYPkCBZNRo8uvgoWl2I+bjjgn4AorZRBc0Vv/Jco3Mj5ZYWryidr3534myR66s1qyhmHCUr1ejmwfd5lWxnt+pQQgGfdeFJzX6xlbvOyC+F+AtQ8QyXYt/zpvOo4gR4Co0YyC3hzAZ+oqamSqop/kwAGwlLcKHlDM6vCjfwKpqoQdxbPT2w3JiaWZwVOmvdC3K1SRjONcTr6c7tiYUca/jaROtZpdoNAtvC9sfg8vVtSD9TXink16T9gHvgJxys5d/5C/Bccz9HZB75qkqOr7CA/ZGaOO6wtb+6cvMHWTLmCnKHtzzcNnst1CF6KMxhKFeZE7H0/DOZCb30pt7YgQbFNPdjGdIY2qNdkLizFS8CpyHF6kW14fK+2BWUJzKufrceVlF3+gZ08vy9vBEsfBFbJmcwyEEVO5PXb74PnuAPrz0Kwj1+Kd0lnVIFlyIZ/lioEIFob99BIg7rdEmyE9CS4NtCVuYjXwDCozy1NWivH1IToZ5YrPHZjnTriJZWFBL2OBQLudRIdqIx8VZLMBim5vaNBz5gUpqg6DPxlQpg6d1g9CinWhbRFK9plsTgPAYtbl9I1E1+yqLKAffTietcnAtzBtMLbHbN0JBYVqDEcF4KsX7HntMKK7fWqGtvg0WvzBFMl3QrjbJEGPMizF9BbUOZe96z19lj8KoGNOzWM2bHPevoJCh6u/tvfuyQz+i2DOCLXedbBpDpMEU4LcwuP5onqh21ORCvyVk04ZvAOUaHDlFS0mbqRF3PJIDbzRcKR5RPJ7GE5j4i0/56haN3optRgCNIR5c8FCuxhoyk6r4+vBTehx2LLmSAqWK6Ai9GDTPKofCqqx8x4lG5KlMyWMJrhR7CYtPZmkht91oDhdSjJUN5xj0ZUaMTp17/BhgPC0uLDTcvILXS5l+Eb7ocGMFWWNOWcaYnEkK2oT6JqzQyLo+8wJVWaG4MvIPo3LcSZQJZTiV/aHawtw+T9STJNnIDh3eUIPVf3yFFUQ9As5Jc2FjQRwtKOuU7wNtkRdFfIzgVmtSrWcfCbc5ldtw6sFbqpA8oEfFi99O63Bq/VF67fftvswyyy2DfflpbjqvIA4NjIGBanqwFtmop8pkXANtdaZO7rQGozQ2zm+UySeMfLiAXLnnLntJjoG/OYhGstKvZBKSuJHswyOEM0Rvlo9eUtSQ5Ak78Ch3neJkggOjkdGjpnT7E/p/U40mCzV9ls5DXzSJh2QiQzUyAeyjhLqKYCi2i+EtTFcux1Trp/HLYQGFNn7fzis95ClItQx1jNEENY98ihpR10KqY0x7KBl0DhHLjbudTRgpDfLFQH4JFMy/lIT3y1H4+uIYyfX0qnL2QGkmQAYVXqZSJnffkAq3shHMJW842i7eZmEAqcEbics2paEYR3iYJljjGz6JVMWsEuHy6TSRvEpfcXnuii4jhNiKaVv629/7521sTlPBsqlrsagN7BFfiwFnhadEqnna7S5QgK3oFc8DFsZKfqcPEF1O4XqZNC7UZ/6Xw2CXuNn7kqegDviF1ZR4HwcNM/BwZxr7sQz5iIA6fYsxVdhLwyS3C9Gsj0DHqUTGza86z1pGhZGSeItQSKNAIPn2dQf40gKFBriQbZNRmegob2TItPVgdOkR4B8naRxlAMheUiUAKQAbuPxiXSpybcxW/2bj3TeSyjRzsnJi0zD+MmZLcHIuNi0I0v2qaequVRBH7O4hVl0U0+a7z3uQ4aUF+LA+3DLYp0QNO8NL8hu6eWK86QD8Tpri7nS73spktbJ8PLw1NMH+/jtT+j5ivia5lpdOsHVNGELV9pL2yjyXnrjUXES6JFG3bmeRPz/oDl9dqNzJxofiu/wFY10WHfDN8R1PIapJkIyCs1S6TFQ30EAZ2Skb4iHwZsiPV4/7BZPHFYaeQrKpzPoeBnkj7+Gk2et8jvwIITOEs4aRvKTyXfF4ueraKTxnfb3kFM+eIsdwqLB9ovJLbzdBu9Kth3Adn7tBmHnchZ/yBBu4zGuauXM0/sF7uqZ3RGz4OWzKUW1VSTeEv9uOCrQMcIsfP4Zihj/22UEOX6D4oS6zCfs+mzm7tFBAOZp+7r1nQJ0Ntl5hl6ylHnm8294aInV942EcFLPFYNiZvp10BI+iAcOEV3JQNlA5yXar+VvpDUypr/7QVWTyEziGvp6deYoih7dWoEM+8uvJG6xjZ1Jy1RuOJVmEd+Yv11ENr5W+hqfND2RgeeN8A8N2cCXS2YPuRgymGdaKv2zMaKzUw9UZs5kwDksWdoMIjQllIFJLMdlQl4FMP54HikALPb1pClLk3bi+tyNfqMcBNS4S2Undfv9w2aIl2Wvr4PX17MkCo5Yo8zoYp/cFnLnzyii8vr3hsHjzZ1dcH1ESl0KtBl3s2XHrWI1GGYmTnoUoJeJ9gmW0f43HwguWQ2Fugezptr3dzLm54p33H8a6znyPmFfR1cZrW1JvJZ7pr7LqJr80Juyev2CSxVcydK1vStcMqMFOJA6ogA7tAosqbijHgaQv1GS6tDIV1WiMVOBzVuCKt/e/Wn/srgJymfJLYUzjt5SihHYe0NVm6kl1Jay9J8KvUofq7piWKAGs5Dq5WSi5hhYuWiQeE3Ybf2DRgbH2g+HRWsdUnd97zTZIuerE/SPqq1F/0YyREMo70I2OE2BpK2YPJ1WfFwSEPv4AjhHvJ9fBfFc108I4800P6IW8PMI9mOq4bd24DrXCzkP6voyLBCALDpNd4rWCnpj6dfe7e4mTS2PZaOpwvFt7Y/fSnJ+wi02oX4sSPWRcAS+/zCwN6MayhUy7ualB12E8dlZaF+Zu739hOwWcdDLH/0JN1S9YuM3aWLAbYa5nTTtu54uCoX4R81GsjKTGQL/4=;opacity=30;fontSize=12;" parent="2" vertex="1">
                    <mxGeometry y="110" width="850" height="680" as="geometry"/>
                </mxCell>
                <mxCell id="21" value="" style="endArrow=none;html=1;fontStyle=2" parent="2" edge="1">
                    <mxGeometry width="50" height="50" relative="1" as="geometry">
                        <mxPoint x="-65" y="240" as="sourcePoint"/>
                        <mxPoint x="885" y="240" as="targetPoint"/>
                    </mxGeometry>
                </mxCell>
                <mxCell id="17" value="" style="endArrow=none;html=1;" parent="1" edge="1">
                    <mxGeometry width="50" height="50" relative="1" as="geometry">
                        <mxPoint x="-850" y="465" as="sourcePoint"/>
                        <mxPoint x="-850" y="-460" as="targetPoint"/>
                        <Array as="points">
                            <mxPoint x="-850"/>
                        </Array>
                    </mxGeometry>
                </mxCell>
                <mxCell id="18" value="" style="endArrow=none;html=1;fontStyle=2" parent="1" edge="1">
                    <mxGeometry width="50" height="50" relative="1" as="geometry">
                        <mxPoint x="-1340" y="90" as="sourcePoint"/>
                        <mxPoint x="-380" y="90" as="targetPoint"/>
                    </mxGeometry>
                </mxCell>
                <mxCell id="20" value="" style="endArrow=none;html=1;fontStyle=2" parent="1" edge="1">
                    <mxGeometry width="50" height="50" relative="1" as="geometry">
                        <mxPoint x="-1310" y="359" as="sourcePoint"/>
                        <mxPoint x="-350" y="359" as="targetPoint"/>
                    </mxGeometry>
                </mxCell>
            </root>
        </mxGraphModel>
    </diagram>
    <diagram name="Page-2" id="dixvzr1e-krAbSYMlx7s">
        <mxGraphModel dx="1252" dy="1892" grid="1" gridSize="10" guides="1" tooltips="1" connect="1" arrows="1" fold="1" page="1" pageScale="1" pageWidth="850" pageHeight="1100" math="0" shadow="0">
            <root>
                <mxCell id="7XRXAS0IfvYh-QRF1dZH-0"/>
                <mxCell id="7XRXAS0IfvYh-QRF1dZH-1" parent="7XRXAS0IfvYh-QRF1dZH-0"/>
                <mxCell id="7XRXAS0IfvYh-QRF1dZH-2" value="" style="strokeWidth=1;shadow=0;dashed=0;align=center;html=1;shape=mxgraph.mockup.containers.browserWindow;rSize=0;strokeColor=#000000;strokeColor2=#008cff;strokeColor3=#c4c4c4;mainText=,;recursiveResize=0;fillColor=#333333;fontColor=#ffffff;" parent="7XRXAS0IfvYh-QRF1dZH-1" vertex="1">
                    <mxGeometry x="5" y="-945" width="840" height="790" as="geometry"/>
                </mxCell>
                <mxCell id="7XRXAS0IfvYh-QRF1dZH-3" value="Chess History" style="strokeWidth=1;shadow=0;dashed=0;align=center;html=1;shape=mxgraph.mockup.containers.anchor;fontSize=17;fontColor=#666666;align=left;" parent="7XRXAS0IfvYh-QRF1dZH-2" vertex="1">
                    <mxGeometry x="60" y="12" width="110" height="26" as="geometry"/>
                </mxCell>
                <mxCell id="7XRXAS0IfvYh-QRF1dZH-4" value="https://www.ilikechess/history.com" style="strokeWidth=1;shadow=0;dashed=0;align=center;html=1;shape=mxgraph.mockup.containers.anchor;rSize=0;fontSize=17;fontColor=#666666;align=left;" parent="7XRXAS0IfvYh-QRF1dZH-2" vertex="1">
                    <mxGeometry x="130" y="60" width="250" height="26" as="geometry"/>
                </mxCell>
                <mxCell id="_Mzu7bMVi2Xx_ZICkCLg-0" value="&lt;div&gt;History: 3&lt;/div&gt;&lt;div&gt;Benjamin Franklin wrote The Morals of Chess in 1750, which praised the social and intellectual development that chess inspires. Paul Morphy, born in 1837 in New Orleans, is hailed as the first American chess legend. After winning the 1857 American Chess Congress, Morphy accepted an invitation to Europe to take on the best players in England, France, and Germany. He crushed Adolph Anderssen, who was considered to be Europe's leading player. Morphy was unofficially acknowledged as the best player of his time, and was the first American to be recognized as the best in a cultural or intellectual field.&lt;/div&gt;&lt;div&gt;&lt;br&gt;&lt;/div&gt;" style="rounded=0;whiteSpace=wrap;html=1;" parent="7XRXAS0IfvYh-QRF1dZH-2" vertex="1">
                    <mxGeometry x="410" y="410" width="420" height="210" as="geometry"/>
                </mxCell>
                <mxCell id="_Mzu7bMVi2Xx_ZICkCLg-1" value="History: 2&lt;br&gt;Medieval chess was popular and often used as an excuse for intimate time alone. At the end of the 15th century, the rules underwent a sudden sea change, with the queen becoming the strongest piece and the bishop becoming the long-range piece. These changes quickened the game pace, intensified the battle, and punished mistakes harshly. The new rules were standardized by the 16th century advent of mass production and the printing press, making it more suitable for organized play, chess notation, codified rules, and strategy books." style="rounded=0;whiteSpace=wrap;html=1;" parent="7XRXAS0IfvYh-QRF1dZH-2" vertex="1">
                    <mxGeometry x="10" y="225" width="390" height="250" as="geometry"/>
                </mxCell>
                <mxCell id="_Mzu7bMVi2Xx_ZICkCLg-2" value="History:&lt;br&gt;Chess originated from the two-player Indian war game, Chatarung, which dates back to 600 A.D. In 1000 A.D., Persian traders spread chess to Europe. The piece next to the king was called a ferz in Persian, and the Europeans changed it to a queen. At the time, the queen and bishop were weak, making the game much slower than it is today. It took a long time for a player to develop the pieces and even longer to checkmate the enemy king." style="rounded=0;whiteSpace=wrap;html=1;" parent="7XRXAS0IfvYh-QRF1dZH-2" vertex="1">
                    <mxGeometry x="410" y="225" width="420" height="175" as="geometry"/>
                </mxCell>
                <mxCell id="9cz8UZThFnkVoJD6QoIq-0" value="&lt;h1&gt;History About Chess&lt;/h1&gt;" style="rounded=0;whiteSpace=wrap;html=1;" parent="7XRXAS0IfvYh-QRF1dZH-2" vertex="1">
                    <mxGeometry x="10" y="115" width="390" height="100" as="geometry"/>
                </mxCell>
                <mxCell id="atLAOUawu4XCAPXm4b2r-0" value="&lt;div&gt;History: 4&lt;/div&gt;&lt;div&gt;The most important development in chess in the past decade has been Internet chess and computer technology. There are numerous Internet chess venues such as the ICC and Yahoo Chess, where amateurs and professionals practice their openings, network and compete for cash prizes and rating points. ChessBase software allows any serious player to access a database of over 2 million games, which players use before major tournaments to determine their opponents' chess style or openings.&lt;br&gt;&lt;/div&gt;" style="rounded=0;whiteSpace=wrap;html=1;" parent="7XRXAS0IfvYh-QRF1dZH-2" vertex="1">
                    <mxGeometry x="10" y="485" width="390" height="290" as="geometry"/>
                </mxCell>
                <mxCell id="oRzzgMtLLyZx1q1b9DUN-0" value="&lt;div&gt;History: 5&lt;/div&gt;&lt;div&gt;The future of American chess is promising, as it is increasingly covered by mainstream media and has rarely appeared on U.S. television. The female population is an untapped market, with only 3-5% of USCF members being women. Schools are adopting chess as part of the regular curriculum, and the United States Chess Federation and its presence in www.uschess.org and Chess Life magazine aim to raise the profile of chess for all demographics.&lt;br&gt;&lt;/div&gt;" style="rounded=0;whiteSpace=wrap;html=1;" parent="7XRXAS0IfvYh-QRF1dZH-2" vertex="1">
                    <mxGeometry x="410" y="630" width="420" height="145" as="geometry"/>
                </mxCell>
                <mxCell id="CWHS-lf10azbMijftT0W-0" value="&lt;h1&gt;Back to home (page)&lt;/h1&gt;" style="rounded=0;whiteSpace=wrap;html=1;" parent="7XRXAS0IfvYh-QRF1dZH-2" vertex="1">
                    <mxGeometry x="410" y="115" width="420" height="100" as="geometry"/>
                </mxCell>
                <mxCell id="aVfJ5rxc5Wb11V9Qr2Xp-0" value="" style="shape=image;verticalLabelPosition=bottom;labelBackgroundColor=default;verticalAlign=top;aspect=fixed;imageAspect=0;image=data:image/avif,AAAAIGZ0eXBhdmlmAAAAAGF2aWZtaWYxbWlhZk1BMUIAAA1HbWV0YQAAAAAAAAAoaGRscgAAAAAAAAAAcGljdAAAAAAAAAAAAAAAAGxpYmF2aWYAAAAADnBpdG0AAAAAAAEAAAAeaWxvYwAAAABEAAABAAEAAAABAAANbwAASVsAAAAoaWluZgAAAAAAAQAAABppbmZlAgAAAAABAABhdjAxQ29sb3IAAAAMv2lwcnAAAAyfaXBjbwAAABRpc3BlAAAAAAAABb4AAAPUAAAAEHBpeGkAAAAAAwgICAAAAAxhdjFDgQgMAAAADFRjb2xycHJvZgAADEhMaW5vAhAAAG1udHJSR0IgWFlaIAfOAAIACQAGADEAAGFjc3BNU0ZUAAAAAElFQyBzUkdCAAAAAAAAAAAAAAAAAAD21gABAAAAANMtSFAgIAAAAAAAAAAAAAAAAAAAAAAAAAAAAAAAAAAAAAAAAAAAAAAAAAAAAAAAAAAAAAAAEWNwcnQAAAFQAAAAM2Rlc2MAAAGEAAAAbHd0cHQAAAHwAAAAFGJrcHQAAAIEAAAAFHJYWVoAAAIYAAAAFGdYWVoAAAIsAAAAFGJYWVoAAAJAAAAAFGRtbmQAAAJUAAAAcGRtZGQAAALEAAAAiHZ1ZWQAAANMAAAAhnZpZXcAAAPUAAAAJGx1bWkAAAP4AAAAFG1lYXMAAAQMAAAAJHRlY2gAAAQwAAAADHJUUkMAAAQ8AAAIDGdUUkMAAAQ8AAAIDGJUUkMAAAQ8AAAIDHRleHQAAAAAQ29weXJpZ2h0IChjKSAxOTk4IEhld2xldHQtUGFja2FyZCBDb21wYW55AABkZXNjAAAAAAAAABJzUkdCIElFQzYxOTY2LTIuMQAAAAAAAAAAAAAAEnNSR0IgSUVDNjE5NjYtMi4xAAAAAAAAAAAAAAAAAAAAAAAAAAAAAAAAAAAAAAAAAAAAAAAAAAAAAAAAAAAAAAAAAABYWVogAAAAAAAA81EAAQAAAAEWzFhZWiAAAAAAAAAAAAAAAAAAAAAAWFlaIAAAAAAAAG+iAAA49QAAA5BYWVogAAAAAAAAYpkAALeFAAAY2lhZWiAAAAAAAAAkoAAAD4QAALbPZGVzYwAAAAAAAAAWSUVDIGh0dHA6Ly93d3cuaWVjLmNoAAAAAAAAAAAAAAAWSUVDIGh0dHA6Ly93d3cuaWVjLmNoAAAAAAAAAAAAAAAAAAAAAAAAAAAAAAAAAAAAAAAAAAAAAAAAAAAAAAAAAAAAAGRlc2MAAAAAAAAALklFQyA2MTk2Ni0yLjEgRGVmYXVsdCBSR0IgY29sb3VyIHNwYWNlIC0gc1JHQgAAAAAAAAAAAAAALklFQyA2MTk2Ni0yLjEgRGVmYXVsdCBSR0IgY29sb3VyIHNwYWNlIC0gc1JHQgAAAAAAAAAAAAAAAAAAAAAAAAAAAABkZXNjAAAAAAAAACxSZWZlcmVuY2UgVmlld2luZyBDb25kaXRpb24gaW4gSUVDNjE5NjYtMi4xAAAAAAAAAAAAAAAsUmVmZXJlbmNlIFZpZXdpbmcgQ29uZGl0aW9uIGluIElFQzYxOTY2LTIuMQAAAAAAAAAAAAAAAAAAAAAAAAAAAAAAAAAAdmlldwAAAAAAE6T+ABRfLgAQzxQAA+3MAAQTCwADXJ4AAAABWFlaIAAAAAAATAlWAFAAAABXH+dtZWFzAAAAAAAAAAEAAAAAAAAAAAAAAAAAAAAAAAACjwAAAAJzaWcgAAAAAENSVCBjdXJ2AAAAAAAABAAAAAAFAAoADwAUABkAHgAjACgALQAyADcAOwBAAEUASgBPAFQAWQBeAGMAaABtAHIAdwB8AIEAhgCLAJAAlQCaAJ8ApACpAK4AsgC3ALwAwQDGAMsA0ADVANsA4ADlAOsA8AD2APsBAQEHAQ0BEwEZAR8BJQErATIBOAE+AUUBTAFSAVkBYAFnAW4BdQF8AYMBiwGSAZoBoQGpAbEBuQHBAckB0QHZAeEB6QHyAfoCAwIMAhQCHQImAi8COAJBAksCVAJdAmcCcQJ6AoQCjgKYAqICrAK2AsECywLVAuAC6wL1AwADCwMWAyEDLQM4A0MDTwNaA2YDcgN+A4oDlgOiA64DugPHA9MD4APsA/kEBgQTBCAELQQ7BEgEVQRjBHEEfgSMBJoEqAS2BMQE0wThBPAE/gUNBRwFKwU6BUkFWAVnBXcFhgWWBaYFtQXFBdUF5QX2BgYGFgYnBjcGSAZZBmoGewaMBp0GrwbABtEG4wb1BwcHGQcrBz0HTwdhB3QHhgeZB6wHvwfSB+UH+AgLCB8IMghGCFoIbgiCCJYIqgi+CNII5wj7CRAJJQk6CU8JZAl5CY8JpAm6Cc8J5Qn7ChEKJwo9ClQKagqBCpgKrgrFCtwK8wsLCyILOQtRC2kLgAuYC7ALyAvhC/kMEgwqDEMMXAx1DI4MpwzADNkM8w0NDSYNQA1aDXQNjg2pDcMN3g34DhMOLg5JDmQOfw6bDrYO0g7uDwkPJQ9BD14Peg+WD7MPzw/sEAkQJhBDEGEQfhCbELkQ1xD1ERMRMRFPEW0RjBGqEckR6BIHEiYSRRJkEoQSoxLDEuMTAxMjE0MTYxODE6QTxRPlFAYUJxRJFGoUixStFM4U8BUSFTQVVhV4FZsVvRXgFgMWJhZJFmwWjxayFtYW+hcdF0EXZReJF64X0hf3GBsYQBhlGIoYrxjVGPoZIBlFGWsZkRm3Gd0aBBoqGlEadxqeGsUa7BsUGzsbYxuKG7Ib2hwCHCocUhx7HKMczBz1HR4dRx1wHZkdwx3sHhYeQB5qHpQevh7pHxMfPh9pH5Qfvx/qIBUgQSBsIJggxCDwIRwhSCF1IaEhziH7IiciVSKCIq8i3SMKIzgjZiOUI8Ij8CQfJE0kfCSrJNolCSU4JWgllyXHJfcmJyZXJocmtyboJxgnSSd6J6sn3CgNKD8ocSiiKNQpBik4KWspnSnQKgIqNSpoKpsqzysCKzYraSudK9EsBSw5LG4soizXLQwtQS12Last4S4WLkwugi63Lu4vJC9aL5Evxy/+MDUwbDCkMNsxEjFKMYIxujHyMioyYzKbMtQzDTNGM38zuDPxNCs0ZTSeNNg1EzVNNYc1wjX9Njc2cjauNuk3JDdgN5w31zgUOFA4jDjIOQU5Qjl/Obw5+To2OnQ6sjrvOy07azuqO+g8JzxlPKQ84z0iPWE9oT3gPiA+YD6gPuA/IT9hP6I/4kAjQGRApkDnQSlBakGsQe5CMEJyQrVC90M6Q31DwEQDREdEikTORRJFVUWaRd5GIkZnRqtG8Ec1R3tHwEgFSEtIkUjXSR1JY0mpSfBKN0p9SsRLDEtTS5pL4kwqTHJMuk0CTUpNk03cTiVObk63TwBPSU+TT91QJ1BxULtRBlFQUZtR5lIxUnxSx1MTU19TqlP2VEJUj1TbVShVdVXCVg9WXFapVvdXRFeSV+BYL1h9WMtZGllpWbhaB1pWWqZa9VtFW5Vb5Vw1XIZc1l0nXXhdyV4aXmxevV8PX2Ffs2AFYFdgqmD8YU9homH1YklinGLwY0Njl2PrZEBklGTpZT1lkmXnZj1mkmboZz1nk2fpaD9olmjsaUNpmmnxakhqn2r3a09rp2v/bFdsr20IbWBtuW4SbmtuxG8eb3hv0XArcIZw4HE6cZVx8HJLcqZzAXNdc7h0FHRwdMx1KHWFdeF2Pnabdvh3VnezeBF4bnjMeSp5iXnnekZ6pXsEe2N7wnwhfIF84X1BfaF+AX5ifsJ/I3+Ef+WAR4CogQqBa4HNgjCCkoL0g1eDuoQdhICE44VHhauGDoZyhteHO4efiASIaYjOiTOJmYn+imSKyoswi5aL/IxjjMqNMY2Yjf+OZo7OjzaPnpAGkG6Q1pE/kaiSEZJ6kuOTTZO2lCCUipT0lV+VyZY0lp+XCpd1l+CYTJi4mSSZkJn8mmia1ZtCm6+cHJyJnPedZJ3SnkCerp8dn4uf+qBpoNihR6G2oiailqMGo3aj5qRWpMelOKWpphqmi6b9p26n4KhSqMSpN6mpqhyqj6sCq3Wr6axcrNCtRK24ri2uoa8Wr4uwALB1sOqxYLHWskuywrM4s660JbSctRO1irYBtnm28Ldot+C4WbjRuUq5wro7urW7LrunvCG8m70VvY++Cr6Evv+/er/1wHDA7MFnwePCX8Lbw1jD1MRRxM7FS8XIxkbGw8dBx7/IPci8yTrJuco4yrfLNsu2zDXMtc01zbXONs62zzfPuNA50LrRPNG+0j/SwdNE08bUSdTL1U7V0dZV1tjXXNfg2GTY6Nls2fHadtr724DcBdyK3RDdlt4c3qLfKd+v4DbgveFE4cziU+Lb42Pj6+Rz5PzlhOYN5pbnH+ep6DLovOlG6dDqW+rl63Dr++yG7RHtnO4o7rTvQO/M8Fjw5fFy8f/yjPMZ86f0NPTC9VD13vZt9vv3ivgZ+Kj5OPnH+lf65/t3/Af8mP0p/br+S/7c/23//wAAABNjb2xybmNseAABAA0ABoAAAAAYaXBtYQAAAAAAAAABAAEFAQKDBAUAAEljbWRhdBIACgoaKm3vp8EBDQaEMsmSAUQ8ADDDDFD2WETSuK+PGB2yUe97f8rw9axZs2jBP5SHrr9HvNVng+kFoBhguC9NJSwCJGkUTIdkz0uWH8LyuIuBFaQbisPx/MucpTOPLMvJMO/sncnVKGADW5Qpy626bYQA7xGuI78idZw10lvnmM1pq4T5Gmrvx7m9wwHevQtsVyI9bNYo63xRj1lm7Msfb4wAM2UXz18hHjRE9shBHZ8IRY4PveU8F1OI+Nky5Q5vvnS+wAUBhs6bovYFT0yylfO7zjnuZNv7QsUhmdAaP4YF3zuqQNmaCagYr0EtblU2Rxx1vXQnxjn6kx+efT/TBDpQ+5TEHpg8SnosnJCi/7SvnufNqNJ3jkl7/xvIt7sOa0nn7W0G+ZHEW5XDiegG/2Tf1/YmrgwbDEQpDRAJYWqfu6kYrdSuM1CNasUE91tbIun+j1jxOgviJeDP0wMZy8XaL7YyhmL2zyjYocK0Iksjz5NupBKCNktJ4CRY3fCoyOUhUSDe+hbka0ic/+V3UnETYVUpPzweI8e4QQ/vPLNQCcxMIVVt/WrQgsR1u8NNUFhWfB4GUT7m6ZfV99GseFqfGyKkreURCiHgLI8eTxtddoXexjZ9AqmN+SwUQGhRKi2JVjZDqgNpfZGODBcRbNPRwGgFWJZeeHhi6gQX7mAmpiG4H0LggtcXy6Gw0HQfDY2gv+TQPB4alEAfIMsOtyUrSdYMFKz+JgrgcBbYAKh1/FrRe2wBp13gjG/m2EI9SW2b3xY0PtdghHf997Dnp0rscX6Xk5tONQ0LhnmK7X0CAKxF8FrL3SArq+82MB4+lUltYnat90SWFc1vYeviorblgopEklcPjsBzOir+y3rinf8Q7pJItbmHjZuxd2Phx6/JSyJy7zUKSq7cu4/xH6lEASUvcJ5u1lum33ieBSFB2woIwfrwXliNsdht5gY0RwigoNee2bbOVUEhMiVgvguIWrLpjV9b18bwTPpvfZx294zt/3Hwsn594b1wgrUKHR91kyGHm3G5TRHd+bpQJxp7bTyTtgZcDRBenAWeZbsnuOJfPhnBFnKcywj1AHMWOfgkK8o8IvHx0q9MYP10KDqXXrIg9dH+JdpQvWNznQVrMs0wDeDHB0x4EjMiTYQNfhlJsrg3TYoIfJh3TW4+nKkfJ0hH1LxxGQ4QKWW1BRl1b0YUTqe1mRSX0mdgE3VQrBVIF/zDlg91OpzSbxustnEuqXUzXIUoQVLisJpOxenvTXWOM/TvPRbk2t5UW5hLk6ga/om3sKSgMfpKJQDVcaBWL70tVeFoupzGpwnDigQZPAPcTV61umsH5gVhUe3gIPCBadsrBQIZATX0SFeb5lm3cNJCnko45F1s6lKiiHGmHJ5M2BYMwrI6Bot0yPBCunQO7OnmxekdG2jSH7u/09bn2HtWHZDS97VQXJeWalNVRw/jTr4m2o8He7wmlpvBE70TY7yKuuc7DU7Op9eRfSufcxtkoeIHUzzlvFWj7WKfR3YT6N6IWprpMMFZdlUERgErqmkET3qUBP2GD2YPVk/MylSa5TWX2cMnVi2Kj1TbXEVzTrDb+pw7mO0FcGApv5glF5/RM2Yfh+LBGUDGfyZPFl9j6qW4g3qNWlUduCpYN2UWTmP/21k5RKdxMw4uN4PcyPcpiOqsXQEbHbJWx5mmfddHw4G9GPGhx1SkHUB/rb7BEZyO4FiuI46JPNRjyKmo9ve3eL9cEwp+3oAzzRSTC+L+3k3samLuNTi4sZ1gHPPxjYj04nqmGjsj+9NL3l53wm+Lo8twmpUOKJEYf0oulbCQxVnlGMpE/aBZuhks+6HjQcjGcmYmzG0Dsx7rxHe/aAG19EyjznXedNC3DtI7uq+M7Hdk06QUny0PmwTYRPR2Wf31EDuhKVmZsX62gsQVmSAAAB1AAi9xsvMMfgcqPOD+45SNnM7FNjjxgDQ/PpUY92Pi/2LNWaeo1tMlSs0mMWt+9HM88WCvrSRi6YwTZqqJA+j9NKtkpLvmRj0tyN9Ndo2JJBwMlZ4fwPmZWUj1Avqi4+kt/tljBr0hSV50V5z5jWvRawXSrZOz9mYrU303zM6CRr7av8gydQD6R8juaa6wY4yWysG8dW8qAbKxzeNkvHnZGBg6fYaReFCkUPm9S0ZIDGeHM01mFSU8OrUeCCPdArWDwJflbPh/0p6ooUwzBs2KHGyIbAeaZ45mm7GaSlQvaD6dz2KHKp4UUDFSgk0NlweB45ZqG5l1bTzLiZZuM4BB+AyDVoMyd5YiLRmtgI+BDPzrGvR1Qf+Axfqk2rRQdB+sRY2UH4zEL2zXlQAf1WkDpdMzxvOvNDHCnKvMVo7GtCtBm54lhGeX+NUMi/HknVk1WBrJiFgmXH4LAUDdDjA18riYQxgLNhIMSMaVoXmbankZcacxnHyIEPELWR7A0Dsem1GZByobcupWtwOPOBruFXj+ub+K+m8gYWNrEb+GYtfGw/yoX+VcAeL8pr6WKQEYR/EH8YDr1Gbvsw9s97rOwCvxy7X4uEP/bQs/VTdOq0Rkmz/5numbPnYm6ytfIputbUVifACjH/4QbTYcQjgMdL/UZEoRisasxXkuIexDQIH2EVJ1fSPS+NZGKfw6deTFag9eeHEAd5FoNmXcJZOZ+JaQD/qGtzC2n7PBYjFn+patxzOHY4D2WBUCRura6yPT0vq2PVt9hrlIYTI/t7qcKHaJ6+p7S6uRTOuSylskAYvlNDe84QxBDkmFGJntIysKD65pKXfyHAS9kZS0qjMoryruO99YNI9/xQSDcDeWhpfL7L+79Fat9tf9frDDAf+KZh28UO4A/F1Gdjd1Rj/7YUIc3W0gdKb3duus3uCu8n2zbxGOJvBCjO2lgJWZzsOA+RJ0fN1XsK1dWLF+SCHLS4c8p/TCKBn+FL1/xbY6Qn6agt5qe01whq5FubamgslQt0JBFZ92vozUE5uAkSJ4Xh0Lg0YqDRJykAz/q+6KB/Nq0q+CyrkRpnB29MD+hyjf4ym2/sCGqLCp/yKeLKXybsCEkn9orAesjgHtdxLROOQf/e6d1HQlFrCsvAAAAAAAAADfDB7OShdi19u9NkvyceNMup9exmvnEAXZvDBc9SYgX6hjZ4waX90nDiW8bnbRpuMvWkgNZtVFpXOAZyz7iS5cgM3tq+YUjfJuzPYp0nCeffxodgu4QmCQtdPX2z4b4OBESk/50ROgJT1NHmSGxPz3Yc1bO/zP1o5j35CwsehI3ZklX9AzrRqRr+gTF/2jf/zoVY1WkfRenBONX5E1k046g4YmIQWLDP67EhbJ4VXtPHhGkGbH5ukIz6nXIGEQiI/c6eOge9GS+04lPlh3ubKm5QcKt/9k6pOfOxk65Umh6qX8/I8XXg74/2GKOFBc6ZkjTBlmhkxS6QZw1u/VPGfvCmtkx8l42brvJJN6O4prpHekpbhKixpkP6Vhwm03yX8FYFYd4/Qi0Pu/is7T58OirQ7LfXjfx5GxhFeivd8XtYbOllFIa3C25aZSi/XR6PcHIx2UhdgeTtWjfmDVrvwDJQIVU6kMcLJdGc5jskm2cTOZLCJ2EAMaeNBngU194HJoTBwclTRkhW568MZFJYanlp5ZBjj7n4+4jqjAYcaIPdHIR9/OEJuKXAVGFSjLxHPHLeim8rnIJQ83BiDP37R1GOU33SkVv1s3gXsbS2v14NqTaLWI6cXE+72+lLikWonKfs/wdWvDD6aTcM6NluEH9vhE402on4ImoKFXRZ/8UUM1820RjHTbXkwClqy9XKMJ+4GBNtLELX1QN0pSfeb8ZouCaVICRwvPWDYpF076jzWFFHYbiiUhUpHseuNon5ZhyVaZV8NNxNL9UMBh0emvEXhcevl9FEnb3zhJw4kzjrV5L0aQUSl4x8CJx3Na+D4azk2V/P5O6ilY9W5z6R3JMtHeIn8BOaqmvecXVeHzz/kmgmwSBL9/QQW1jq1gh+b3gVM2TGABVuvHbRRYRto64FO13GMGIItnZIXknDSXvw7Ws8bFqVUngnT3LobGc2/RhnCH23OyT5OlAWSf/XA6PI5iDtIGoQ8c7Mb2dpWZDEt4HxV+ojP/vLJ549jgxS7sITb3eXvyNyLbRp8PfBfQIiLb9gIJMs5bTBctAV2fClnZd1l6ciK46WldClpJc19MyhxwAoTFLJFYRsjwOOOXGagjHtWd8/bG7gjn6lxiv6MdDcCF6gkmrUO2QRrtoSlREeddrnhJ2z/c1q2Agl7dwlS9nff9Vaz6VDPeQaskWfS9/9XzHtg3ksjSvVwPHQ+Zkz/o03gT9aEyw0jvYCSuIr7aJIPmhLkZGhQo4THBCar9ZPWS8eibBdt1orf29/knnj9I/u1h+vJVBiXCm0YyXT1CFeHPxoikNJ3iw+FH//JnF8iC7t1S3F/RD+ga8OO1n8q6WzC0EVlir8+L/iPqurLJG34Ilt0xS8tyE9HejgflBuLHcmNrqHaM09a3ILsyua7P3yDj/nhrkmDvbR3TZrVQQwHy0HOV/7FEk8OEbl3EZ9/G07SLLAWldFkzjqmTnDxsbhwTGqPCke+3/JZH93xyvWPf0AFFmJNlBaEDwHn8r6qrcDDPYJ+PnFuwm+PuRUonWACYZX5sLGfheV+u59ob5Of7w6ctZbLCtFCylTp6r2TKl/ANVyERQ+dlLUEbWe9/DkfKxNrfX0rQPsy8S7Em8ETOkvsOqN/jD94qnKfN+R2tCWgVBdwG2qyOluo42JJpYCOfYKesRIM/iUZCoSwtBjZdf6HVI40zdArbfxthhGz1OBLvnvM7h2lMAHtRyVXeTTWY9XMPw+eE6+cjodZoYpEyEKskASdsFa1I043HvMsqtNs6O9+M+IoyLnBKNDwe5MxxR/bosJrbBGXG9N/O9jsoJrkpm+cTJe9VIrpz9Fx0xE4Jp+c7UIF1uK6bk/9Q/YYsrrpWqEzBCim9DmdBFnUflmQQ4yMzk6JZm03wuFC4ELBuNjT5vEjrfJU/bjab4NQthNRG0cd0w1Tak6UKv1k/piYor3TM5bzZFy/ajPBAnub4aEJbO4mPSZ/xON4AZx81WrGuDbBseEffNmBDajfK7iMEBa7sC7dxzIGIuwPztIYRaFor3o8wy8rnOE/W7euFW/Xl2gmt6j6FcE+J1YJrv21eJ0j+gJKbVgHq8Wmb5n0wglRgElU21pq/DjOYO0d2AzWt2GYiEG3u39Kim4WaK8BXBynr47+rVi9ldDiVo6g71KiFe2YBSdGmBOy7P8KmJvPw82ObWK8rX0B/bMLXmFjJWaUSVkKEzFJfgBuNl7uSKth1OoOHVd59kWPREJvqym+HkaPM9Jh6LP7SmKmF3DBVEW6RRCd6bwS+k7upK9Z+DkMsOkAk6xypnc08sESpcGlqwwhfky12L0g3b82iZ/Dum4T5yq1YbA1u3Ut96gu5nYUHrq/fWMPQFa1TYWTLiVyMWLE+ntNGJNE2xJebr6j0XJ7ouIzxTLdjuZe8VZaHHJY95x01navrCoInC6zI+htRUrmD4Ng5wb4vuaR3OiFqkuiYqfoQvC13Wojpqz5dLD2yGT5pmMPmMYR1PNhG27kOBRj5w8xZMA4rdzJA80WDC0Knqbkqa1DfyJVM5VNG/om6cqmGlPkXasXw3aIqW3QQRYwaC7GWbrjuMt1AvojiesGY9SSh573mnb7kt/ITzijIcwQdTnlggztKIqeL+8mGNdqb4MRjw+aUCeoV3NqUTGcygUM61UHWnX6sAyAD3BavU8Mwzq4NjGwpwPMo1z277h5ogc803hXl6rW6CwzMI0kBOH+dgSyHDyzZo9EM/kunFdGK0o5+h4fAwWAoLHFJ9lH9LrJgUnOm/s88QyNRaAGnELgxNZTX5XuX0cAoBCX30fN81Nc/MekVjAfirShiCE0CD0vtKF6S+r9Lm0YTRzyL5fbFZJ3/QlyzkeeFgM6ekgdR/sRPzAcP8L1jJXZGmXJToQvM1UOMl7pzR8LpjZ/le6vW+Z1SyxdXgVv6wKV19bwfN3xySB8ZnL36okybxQn7NwEpuhmbVCS3FT/lTlwCmN8HtDwn2niVDG+XUEp2W8wXpPDx7AdRlcrBxpe2/q0Sj/e638MhuEvxbT7nZsiIIYHPcKRoM7c3vQritlgalAzVMMpthQ8mAyy3bAr4lKXT1P2yKetivPAvoGpXlG2JyvRoTP6spf3dGwbPXCN3dImJ/r+6ztNP5IXAbTZlnrlWRz0sfh65zgRyEZ466d3nslVkTX4/yO7D+lxKgQ6BV9YbxgTq6wxnZa8zAb5wFXb0XqwVZEDiKUNMwFqPRTI/BZM4Mv36CV6rgqbegKGuceVWjyLCNLkjNJ4EZcQ7J4d2Ry9l5R9FSou192lSI+OmAVPsrak9DcEJn+Mdiw2oXhimh8cx9dTPwXIcD6rz9K3lz7e3q6ZvSETnMuaSBg6Q02lm5BtAp+PjGjs+zifRHRw6zdjl+drGp9wOKW3YJ8MMqwAcIPgi61oxp5mTjUeJ/T1SAisRtHdjQoALm/+LvtnhyUC0fs3QITGyYjdhiyiSKQZf/7wvbrpABzV8ZFpNs5GEOslNweVjSTFt7zPfoEUf7W2nzgRjgjotLvOinnSYghfKUuFSkV3PO6MsJbVijvO5NQYvtEijM5Tka6/FwLHjgS8ITQchwa2g1AMVEA/lEQejfXe6L71CApnC1mwBrUOfVFR0pH0dY5I06PDalRWLZqPwgg108Hgt1pItCCyLIV0/jxh53mw5hOIB1SJhHscTWms02owz3hGad3QKsmF1IQR721T97c8W4Qav2WpMscZsCO+rIxBxY+zqAlT8aA88e3b5eSGPwuSK51QXLNjMX7Ia3vtRjh1NjASkK6itWvyncqbx+io4l36/uPUxM8mGw2HslRxg9wiTZR/ruXdtF4AKMKo4dqsjh8Xc6+ogHu61ow2p6PXr+Q46QitaNfArubHTQOfQmS7MlnH0Ct6S8A5jE4EUE+P9hjiOi6CtHqr55JmM/WV52+K2eu51QBcr1JipWkikgC7SysxriHI327HI0Wvhh0NTx1G0TuO0iUNf7EGnSLXl6QjwTi89zOX1IMmXjqs5W0L+rse0z5j/HzlHigRCTzXGX5CeF190do86HRUDGCAAAACmZQWXjLUsuphNRvRWEprHM7GgiEQxlzQ5NoUaL9nU+MXPLWxZgdehj2SwtFGdu8AHxct9Xn6Re/u401/VJgKW0GTd915jXTbLjHhwPA8ZegofwyvD953Hfrd3YeRiV5ijSUFgdEyqWw6PjYEy67LGSs5ufi4WRcwhdh74bmNOl88XPl2mrCVd9yObkeysxG6+tsuI8ZxVa6SrOmcn5GhdWcr07gdfnGiA43hFd7SWyzMoaVn/Bj3cLvctxWDpslZJ9kSaiXxG5IsCGJGMw+/ekliMi5khaZLt8Rn4Eb3EBYHv41qg+aP/ccMx30iCJbTymdv3zUQifoeF+FlSOsk7xRd/5LAEPP0W2FFMPDLu1IeHzcZGvbT2H1VtwYtyP6iFWFMTvyNRdZRyejsgT+291yayBOM14jaCHlagsqdT2GvBUbcWyhDdYJPk9GKX3o/YuEduVUBuTEzRS/QR8NSxsmcOJDG/xOtkGSBhKemtO47+VnBFByCvn0/6spvJkG3sCx8U/SIjs5zwGgrxRwCNBcMg80dGLnMSSF81n97dQzVqo3P2FRv4oTtVKJLXX7IOTwxTGiX5gok/NBuwYiDNYoFCq7UjKAg1ztlGw8ODMCT05tpStqI8hvHUQPhg4wBnL+TY7e6TCzasWamEOw+azcA2k0AKxlw2qvkIpmP6VJra0tff7zbj+/2LuF5sXMQ+gi+uQVyAArvsJTfBUSWt1GkyHuGxO5mjaEdJkPur7Mk2UQDT/fyrGPg/3PBBQO9/5KdBH8LX13j6h8TaQufcnQBqNT9Whu+0I2E4aVPpq/vP22/zSHCGUjarZtKcY2D6U7ORTMwQc8J9/GeLJEbQhFPfIn/cvNW7lB73uP63vy7llwkiigRyhwzAetKe+fzM81P5la5U/ZKA4eKT4DlpRHg8sUAE0fFzC4XjlhLOhC3ZUpzEtx6WsYOLPSsypZEGvnoy4onTprDGifzQCa1E0O+wE+B1QnWijLF5XF9TrDtu+VFLnvo0eQnDwOHKQlgRSnaM5SRVCKUUXDB531fHuUPU+Ml0qBceeOZkNWRvVIeyakm13M0a3KN5ZFQ7GQJYAGb5r7NBV2WC37C2PDoFWcTK9lxDnoLyY7FA64+aNdToSNF6xVrUuj0ytAyyJa/9tA2SIHL/M0DWDWYKj+l2x2L+ikfBPPXs15oMqqX/Bcn49yOxryS3/fzJeRihq/x4A25vm8Dmg6fUfIi3qrgsnBY+DViPCIIPIOD0kucsAr9X7MRXTraxL6tSzdRNu+eQ8+9X/f5iJme8P6KFrgeRuVdSy4TD8KjrHcIKzseYpvVDwrYCn9Vv8yRmusDXtmzv5XpWlaXjyZ20npNLj9ikq/maFKQKSUBH0+Hb6Q0RDwBw3C7PUbPluOkwvhk4jXKnb3Dqvm/ZzWfcDf5q0+37f8/mitwkL33R/iziPY+EO9/gq1PknJ3MuFh234eg45Nl9pmlXkl/ZdE8UNTPhvNFTE3QISv5/D7wGRE4QaSQ8ZWkrjZlKazZanWJl0f80nshH0ILkUY1MZRiFqw/IjJdhUCpQYbqnApGM8XzoB/rzKY0u7gzxFoHR5RxZf+d5eyLk2v+J1yztRHFHjS1SyU6ZfU2Pt62PxhHiDQXxQ2BT8NAmkoVr9indt/XTJRGp72MfkxHmdjhzB14eOfNpEbGnIKLEZyrpjIGK9mAuh9JwAv/4PT5+1dTEm+U3aVDMDSaMViHAvTtx8rVv7oB6p1zL5lST/jt3qzKgRAYnqIjwxot2YHYfh75TnpJdNqGPM80eZSDWWWCxj08vwabedt3vIkNyi65jVuxQaqdaRqTparHjP6HfFInVX0s98Ue4yg0MZ65BhAmGbMuz/1KpwdSvdTrcSHS88VXRiI4WVdyCWZ43tkHz7p4t3I3FOqDqWurbB7R+xUSxDqFwuUaHhVPGFezoYklyNC9WmWw5Pu9feuVdmZNs+QyBwhe74QUUi/B4EXMLI4Ea2d1ascKuB3cGupG2/TGKnpnNhU3diZ4AoJPkWwYzN4NgsLE9uGBi2LEIkomNcN9tWPvGKnkmVUWbbDtJ+gzKIr0G7eFYkXGmgYFL+W0X8CfIlQsudoSztzVX4mQrj3+F+xV5Sx/tB2VQk+0XX72jJLPxGkY3jGYJv4S89G35uVqo7Qz4lNkxpE7mUYqAkI98mfppxCkOQ9ecQHVMZwnHWUdtZizoaDil359z5MuV7fZRtERHavNLVWeRUPFzqWkZ9mVfd4+P/HQFI0LBnJCkAg4N1TqyFvaxA5HZCKjooSd6RLamdENU05Ci8KQUj86zc0qdemHNkQIioguempoNDfpK8ZiSgtfWuy1P5DIBnBRhMTZ5kNuyn4WdRK3af2Vr+zkvdDokScjxTZ9vDWKwpbINjN+hEkOp7oGHPAJCh/vIUzaWf3iAWqZpvD+rxOQBrioNq+NXOHeIONrefnUCQhcvDEx7YYMyQavvcZVOCLFoPiwBdCeFPj+NGlkAL4/8CWSuT6bFnkmywzCV2PZMx5LAxtZIlFW2m4hCY02w2IBv3nl/4yA0k1AV5uxS8JIqhx1Dj24h1dCFaxl8sfthaXZMxkUTPN6uPRh6AxHph9rIaWxez+z3zPQlWfX5HxxiU3Onz7T9fv4aBlDauevaaiYzc/dSWTOYGIxpSWdD5wu2ZeBp7u3pBozi29rBriFXnfHL+Tu2WKPy1x8D0lgfz95Dvs+UtJ9KUtevTyXEnS2pFQJSwH4Cmy3oYTetGfzoSIPy/UrRh+8sqS4+nYiP9f4WjcalMx7JyXZ8FF4RAxdfLTVl4ftltuI2eKTlS9vT4xXs6EEa7iqHtf11cEGo/4po7Cb3dhSZKQNhkowBu1FX1XYsBo0i6seTsyItX6uZNveamqn89s48UPS6pYmC5jKEVRt5dNyr14elT7apxukkfz3MfM/LMFVOXHW1xV6U73iSZX7cguCfLG1f6Ie6JY5cSvrXuEWV6nNuZgJ654RncsaOKwGzS0MKgv/W052zATWF6NjDYkRLgpuLj+OylbnFHURlkSxVbnkr1gQSyZQ0xMSE6yjeDXdba9iuESVy7+Ve/CKwIQ2J8cowKvJYzAq8ieZudBgpnVAwCCk2l8qHh/V3Kov0ff3Iq7xotl2evyqnzBfzD3lHw8rNYPXxPs2Mm/oYjJjpXV+DNbzUE5MHnIXQJDGnFT85zJ3J/xGD0YbxCBu8GfY1RAmuSprDf8kSg8PX4jkMVW3Ew4TxBfcW43i/aDXzCDUQ6qMXt1uP6EiPqDqGBbnVDzBc0oHRdinO2jfdDrT/lDsmbPXMQUowHXKsnKKwMCUfEO9hUlOaiko1WwJyM3RjJPKwlGgNDePdLf+4IqtlhSzEWtZ4h+JMIvpdf/uHlwlix+82mlphBKQ20TMx9tbVRLtGSAJetXkJhJ5ydBRysI8NbjAT2LrNmBvDexmG7j3G8UreL09FkM2F1aHUcFNFWT6EZU3cdupq/CzgYcvKVz768y3q7imsxDCrWubPOLODlFD1NmiMZ2V6zDZgQ/9CV0qm72D7OAXXYpOTEudMlouMtGnaZLqvw/SwUUrj7jh5MTRbr+oDbLjIJMdm3NysM7di2a3ZkmynXUJgwM/pGIgHPG/20+T/FjMCkGr+fJXwhPF+752PEMDiAa2TR78OjK05CEyXg+sg79yq9AwTypiD8YAGz5ejVWnFGBUMX5UoDY6ZNnY2BvGym2ENYko9fm/nyTMd3YRoevNaR/Jou8xxaY9qBhsZIa/rvz5LcFxuvX1UAyQGQPwp6BNJBhFpkkSXcr0DgDBEg+AcBd6YySVdw8S9ukIzQZDRh9rEvkA7pBvtNY1RSMczOyTleMODeZUHDELvohrElKUSkCHWpJZyBF7k80livCerqLvRrhYaWxzf44Ol+AGpBVoReb9qOGU301bBwg2Zw4b2qx+OAZ2f0rTBECN5Nr0l8Ft4N63LpYM4n3/mmG8q2y0U4/wjdMG2861WyrIjBqPutilyeQBJuJTcdhJANhtvGBeuR9xPFoqimkY2aTOQvrx6WcdFdrZVZEnBXPxA6iRPbEZbNMcejFXaoQ9fMagJFI4zwZBgGxLUka/NjIDNFWMjbb6HySNcGfCGJ3GtYiuxg1ubPNSPSrP5Tocri9ZwFBDzrK/bNsCYE9k/PPqkAVc3w+MQ7c+6VA+tELJXQ2TWTx/x7RYds0WZIg1ijnKM8CNayPmlBIsxxyWXeuefGWQsbRkKt5ePUaJyBVddtu8rOudFPjOPwvJA7VcZyUVRujqBDLIIrZwuFhjPrMV5dEAeqnDUZcBUXPhr1Yi0n6VscBGpR1nRT0FAQ+VMvMwfVE46agI72tI5NQy+k5KKMrv6uky0zUk+XkCbHD8EpQRqmcP+jY7PGPjh7wbKKY/Lt8CGqOoNUhdz8iLhBu7lRvfwTQ+69fmbyvB5ckda7vzVnUhutH2X8IA7njyz5+ho3IwmBRL/JevlBqvGmtwKmGcpLyS63o6PBlZl4FW73M6qH43SxOK+0EPlR2rqUXOqqYNKXfRmd9L3rxY4BgFbl/nODVOeFqfZmV4gTjakesc01pcMfEoUYn5Vhp10NzpRnRR/6p0AwrzYoHNCgkuTjv6rT0xb6CMkQ4o0CA4S3iajd6UvRlmTJFWbtNF0silIIWyy3k6LN9qu5qklA0oB6QdeHBqMkcN8iJ3i/NXLGRZRk0h9n68kyqvlFqmRgXyrftRKXYH9YdKJMiv3EKXVEOA+v3pD8aSgBky6a3KU8lq1rJY6iJCKUwxNZgK0sySKRJJXp9j+1zv04rsgpeHLZ+yuX5Nc56wkTC2v/0fQs4kr9EUSjrVgmFdA20Com7fJSIjyPgHQPFpzH9I25ChOEegte1/+mDM6A4zdOCXZ7aCfrGonYmoak1lUt73IYmcETBB2c3nPlAU0FhEpMmtgTGlIBrdUdsACEfW/h3fZUWl9/geZSgBfwu+D2965AnyuGpGWkI7kGiWjZZGfX7yEjfDrLWSKF63MI9TLET1FcqZoLEtmGizPZ0wLdfy8y9ykf8DmFLyEqFABzQYsU+3NHrGNXUP+5rQuxec8UgAgaUD/FSGKxTi2XAuxe2o22/JOlc5uvba0Ld3VUpWts8hs+0dsyw0W533SJcwt5dyGcaYk0+nq1nwgctBVU65kTnXryN2oo4ASKBKXWFMP3SQbo+qWdi6qIyyDR+vqDkbUOoiaml0UAj87eq0VdcXSl0ktHBllvZ6RgIf2ROI9q7cYsI0MKCXcKNYi+Wfbl2m0GtV5NxogUmaJ9usqE/iZIpZcE+ZpAc+ENbWLjYQ+2KaGTe1CXCs/pGaaE9XMp1ROSSx6392VNMYsfSwVml5hdaZbLA0tPnY19WDvTYfjzTtnyYCkpyoW2sAr1zy7WvGtB3hVUqxyMhUJQiAmC503NpQUmGLVZ5m5TcVFVa50SVO6P8OoFQUkiOdJW51Tak+1Is98qh/24zGvNymn4lo6FqsoXzaT8Dmqjw4mzE2pykfHKhRcDUZ0caRnGhHd+VOBGVniYo5hdqImvQWgH1B1fHuFEIFUWpiTXBd6Y6yEx4wZIPLERXEZPvKld+LE/rVsODzFvnizidlc9z5hMZQi8IqNAr8OCPqC9NGn6jKTweCWmS5Kxtp9GhpgV2GhjOlZX9U/xPHMZpuxvr3lBn2+kThHjkhr6Ii4pvMtNENJEnQHCcjC+OJ8SJRqiwWPH0ACrhJ2a2jkH28K9Q4wtpjYkn1dvctonCKvY2heUE6i1X0F1thOMqa3zA+KT2Y7WHRYvC0iIXeJR1Msubdvz6Y5HLAn58YTBKqYEeSld+NtjqtRYI0VT6P47JI2C44o0cPQIs4dzdyi/XEG1884GZ4w+7o694ZbgtivF35WA0kL48HCOeTpBdh2LrSDPrXzT9cZw9T+9+Y4eP/bi4A5f9hmNwoQC+7ikudfLsFg5H+yeDgU9wb1MpcZ5FdMLuSm4MoPw85W7hQz7w3USGfo8a+UTOyNv/6bVLHBukTzjyEqdmC5XtfKSm/XYGp3SVA3m853qG6p3rVd8giN1N9JTwh1CohzHwUlyNcfsLZM7iTISNAvxjt2vA3aEwGPNmyDxbGq31WLHXMzNePSYpyRyIg/er03nmCKubA/wOILz2eJWkG0/fNSHkgeyf2Ee8kJhJT2ZNh/9bS78MegEkeMmjSHeu01Ck77IQYEv3JLxauMyRyjlEBg0gK6zU03VRhmYesCSb0Wimqvy2yu5Uz4Z+p3J9rdjYvVwdUkiSbiUxN3x/Nyi4fJ/KpHryV+4zz3ZmmzE23lcVSX/l7XH+rh28vlszYBIpGOsB0DNNakeLCfMWeszmJvWvf/DO3/U/MNEjNKTs3ytUm+mIssrC5X3b4p25X8CmL7GhE13W2mwsyLn/o2VqeIqfNo1UOMdHnfmHKlY5VekjtOVzakI2IRNQBFEGcerQ/CoCshv9H7XX6ksI91sG6TV53ctjbbUwL0uN5sQxhW6xV6iUN/XCB05whI9sLU/XpkiDkvE2ajcoho3c4d4RhAbgDlvdq5xCsQqDrwQL3Y/zwAAo99AJYKOSF4g7e1D38rCOzIbqQfl7mH0oxUvopEBLMKA5NgH9EwXGz8+00YxlRpY7jbIleaL07Rv1F4oWLmIHqdHcwXqVPp1qT88OUtM/cxZRJMLGQ2ipvq+xhDbjHr2s+DahP5gmhCMpt+p3SIUjeYW2kNrWE0QuigWY/T6GRusGUbwe/ZIovlJJBQY+GhN3c22Qepzx032VjOpTg7XmLN9gkCiC1lurxOPNOBf9B2uQ6pk1sgPThQCVHzmbItSjg9MEGQzKU6kptYUspYlJYvw5T/r2c/SkTTOHBMS1lW8NqIOsGeyMEUczi4ZZNRQpkC2PXc5wbIw7W3WN3wgLqD7l4LM8PrYp0UUEpnZ6MH/ibmlb30jRsGr4b91/dAodTqtt7JdHBYWzetywgvd7lQ7MjEuEzwcvPY/JI87CMZPB9gLSBCcOuskj+0ftwCERnCDIz6S2DYvwSDLOlA7GDxyXst6xtMSU7sLk5EZxCpVU/9hNKtX51xl1zBlaMXuCdhE6HQMCJ3h9i8rNcZ8sKzT/sSWxpG8NrkEJt8fLc6TjzKE/3nfNAZIZN1Mfn0/Q+ZvE/tFZ28az60HuoTIKaFi1vFMB2wkUPZ02gtXf0K+sugjGXDAsCGjkA6IzpMRnU5zf/gBR2VlYtwOsL3rS22eVNRXg+eCcmYCS3Sr+7xyeCHuqJmw9j/KG+2OU0ed+6uvd4CiNh3mUP8r4+V6K9vlQz0VOhaUYOMM3vFnrxi1q6VkPDRnYhHO+jWpBdQsuiyQNE1QPUP4TQogePBjmRaqw9X95oMZafT+SlQzyMhg4XJ/LPHQ/Gd4p9/PrPejInrrbK59Im3mnPnWesmVqx240KDWMJd0u4wVYxiPAv5tIFagn9PaVDZi/qQEgjiK2+U8NZ29fHq028noAvjXnroMdAF/+DXyqcZm5sMveQTQO3qrhIaJ+w24qWzi+WXC7Mz2swYSCGYqwRj9zoYGXoQBgZTVef20eTTU9pbdl+upOsbhcTfkjM8tBuHgoj+GcxqyHZyKhEdBWlR3wgqj+jevWhRw0I+TuB+WYijTmb7osu2+YDCb2GttydShaa32mO2oQIRGy9U9M6kSnNsriJZBQSfCwtx8r/73GkSuX7/kvH4Pmn8hK7shJHSaHJIuGCFmkUMqc1PaRnHWw3lvghNYMZU7RxKGyWf9TwO3W3lSbO8Eo+D4yp1GX84dOPwj7k0kDqPnH43K5K8Rf3PA27dmQzCpw5jFSdlIwK+CRcspScYaUfuAo1xEsCDPumD1oYN5UQ3x3i9q8R/rWKKqJNnxPlNn549JpLrpAaW7LOG+EReFzorerWPyPAW6RdExwH4saZEUrfvtMnNmBxPj14wyNqJnOj6bAySDO19pEAvTAs/cxYh3YmO80IbFxhVc8OgflSJKXbp0xD+PbLGSBPNJXn7W8BiyuHZUSypFxc6jPAtBdtrrIRmxhNTuy11/Bv7qIhzQ879BRrgh5pN/mVI6pwxISz1newrkXG/tOncoxTEFEq6JRMF+6KamfiR3ubqBsn833b6uWZ/7Xx/zWwATpztHWtHHgHnqjqZS3mUzgJtfHVlpS04wl9+rwDkjqaexONqbBQ/qhCpiRwxS8+LX3FV5hwk5MQfzbC4uZhVtL/8w6YBthnzrKeWXtaWWtNgN7Tib+h6ucXGVqSBSvbltyVbd8/zNMfqo2/jY6YEwmPR/SW3UEFS834lwE0ZLupx8fro1Ni/DIEZkPfSzKnIBtfV+e/oyG5T3Afssv0oCcWaSZVLaJpMBGQ7VYTWgerTkzU96Pip5CniwtQUJWC8MxozvUlxkZEP6K03IRH2cU+5UA21O40Cs0RZhsiq9yjJ3nGBAGa1ZceJC19joCAXyd0OnftBvniZuoEdTAIiXUbLpp2LXqYSO6bsa2cYY5hGSrWTUIIdstBSxqk0RWAKfMmgoeNHVF8LOEs+uKL2/nUZCQnkXkvMTFeXT88E1jMniUv5lays5HQ3Ih/Wf3cWMSA2nUsrSQeCbP8hwF4agyvMSPRgM6lPLVUiC2+9MtfB6E1SnimGL21sepQg7JKbdU1GIbPlTGn3hRTT5EoDeKsJ9ce9sD/0s7Nj9uM6G7TXaLdimh3SRpJNTtC4xyLuVDE9hCzQuj6aqEmC5Z3yTqAy9PN6E7MQIFAwYAiZWtTnbZbcD8+swTX01T7xi3pnMP2Nt+r3TiogVB4tbQ/eaZCEr73XJDAFdKvLzbBHuXfCHhszBYQD/mqCK+xJ9mLh44oZY2t9kl+wlmte8XFdfanUuFedS2758XoPoKQzwlDjeoR6n0HHV9FaFvDmtceAXpNuzyEd149+QPEaCyOHZXAHmbGDo4M4WB1Qb2eqmCm+K2OUcxWb4ixvaDObzssAj9UEhvaiH2nb2Hstt8WZ0jQ1jFYdNEMOGAGk5uOFAEpJRp1i4ewLEJzo0XAG0qxJ9xU2PQ0QuKHz+YJa/gk1NuLssEAnNsVvLaOYkWaZvobLVF82ZKZ7eb86nyRssMjn0eW496b87OUIpU/6/8p5IyXRWwQQgqYHjTJNDjrTE/uxpHh37c86IJ9eM0p29lHNic1yV4eWrfDt4tb2EMB13JQW6Qx7Y5+QmP0t0D6xrEO9VB5s1zaq1QUkU0AhWH/f01mlW0IyibGbh6oPoh+t3GrhbWTbWk1uGTIXcnUp3oisK/EFmiba5UeRBo+H7QkYsvgDn/ukKN37wIA8GP3yPTaikaes4B+OqSTcHn4iVk/LYNBhHLrvPtKizVDVkx3tEz2olDDkHTuls9CoVyyXJZVWtFavUf51XdTG2WOmRgmQPUUW4vH/o1BHYEtKOgWVqfKbCN3suFvGYdPm79GiIZLuvgIzT3vLqWTdKvfYXkj8SOXKpsYmXwjBGesy5GxFUz+aBecSLUqrNHtUy8M4L11NSCHU0dqw0iwJXZpWEePWBcYyOakiqsafORSXo9vysSw1Hrr0fX1bw1Uk6x9gJat3W0RHPGzYT+wexxT4ZU8Jlg+o4R3443ari/X4RQgGlIAm6izQIQ2WhMUwFArEWk9QMjDaDIsAgEzCW7Hd5BaPIs4WcSMkmmucShW/wVt1Zq9lxlqIFEDnSCGIPiJ7KopHIRvnoaiEiN2SmgemdgMd7SeOG/fblEsokwUMf8GDiIe1iqvGGwbNy4uvqaKOd+KKn7ZGfBI5+fG2sKBVvtATuGjyAj0puJMw65B/TfM0er5qNtVFSBF8ZXMU9gPwGo9Jiz0+qHxGUCtwOlDCF+lYU8gUCG0GS7Cu9E2mNyZUgADko/udV2Fhtt1d+gDrHEHHNYTXaICjeDAzUof+knOBwcQNW9LRg3e0ZJjvfrS/G3PCCoV/r22w7EOlc6qRRXBn5ddyROy/awI79HHwOQp+qWgI3tMxxZxisWDXWgnxVRKbi279l5O4XaT9dF9ez8F8MGD8AQn24kVQagTIph9byqK3gzOYyNdWBJaG5Nh6gsrQjd1DQsY2EdvX20hNC2mzGmoT7vfL4P24QDP/Li38CgLjJWfIv/tmiEXRSzP2DSxeZZT3ohynE9ce/DZ9qOafZ46zU09dmUNL4vuhywqp+RZDMBXFl6+vWos7l4tCM8mA5D1umlzD8KWma8U0/7bDnpWVUz0oQQWCMaxSaxLUCGUTtKYeWHxdTSU1YuxV8goSZ0Dar8WZu54nMsGg/+JnjojwZE8DjZwBeHpY51dClzsCezUQUVP/svg8KjDmFHog0WeBtue5HoqhHzHM0WTKy+amdDq9Qgf+ngwvtWBf9RjX0IOhq2A4dBaA8GrWi5rAnSBo0D8/w8XLcAYSM/2QQbmskvhZ/X8h0k86Y0+rDpA842EoJ1ccHVCtDBd/mVGMXDuOjbDFO++4f6gb3Y8/FphE4mBU+jIoi8sNl7EO24NFrhvIIUCH529yt1H6rQLhqnULKU7iVbDJ+hHF7eHZbEXCLxln7QTEWOm1BtK1izTcog8N2qLzO8Pvh2o2Z1cCbG8I5dMckfJQaqx9b3AjGAuQ+UDEA7HMt/JjSo8qS+V7f2HRv7Ss26n84jxn3MbooS5e8uSm9ZXBYzw1Sut/iBju8XtwfeZI6y7WbmYrWRcy+k79QY8mu6QsssQAoLtlj+xdMYdX4KpI3yQvXaChJ8+VLPU1uPNkJSD4DwWfLI46Uv44p0zUxIaFA1r3SKVWkmEvSCZowybSjhGNJdJTtdanTMqNom3A/8DEMux/hjwZvjRhojUnZWSfxSKbOY2nIW6YXVNa1nytTHd/TuSf8SvJq8KYrX2oAqlcJvcIi+Syj319XS67Bg9vSG3cAPRviO7cItoq11HYxTXjNrVtnHjzfPHO/sk9MzqRlSdUiseFbWYOzfafroeirC6QemhF7d4mER0UfqKEDCjW+0GaQvXcS1s3IgYDE40Pm+Yj8u9drjH+++xnOoTXwjZgZQxKgzc1pxDv3sAwEKqJWKYqopIEoW5W2IxLog5A/ZwKgmzPoBB2etKP+WfW5mQzxFcOUwiSCep7p8B9KkhwbH8CdvY4dYhJ9VL3m54+1XC32roCZeF9GDGgBnH237v/htV+4Mog4dTjgld6GtVIrM3kWcfX2MaIEz8U0jEXDEE8Tl46VhqZLW5fBhqN+pg1OKV2vKwwN6KBpiWCWfyCl7kNyCoxr++9CGfbxOvDX0KG40SP252NF1alT7zErnFkuPkFOeCaNN5FoUPru/DeoXO2nUe+js5uhJhSe+MJhaFxzec35bYFKiz0IEAtlSAGWPpph+zZr/2iQTP/zz8M70jyokAJL6C/A2Hm03aXc9qyRSs+tnw2N0WDHrV0w5HICI1Mz4xCn4vvPTvbRNXe+TMtT77/LcWbgDs2VT1GW96DE0nWnW0c4C2tosucXF+YxQ29NqEegaXrdvK1IWyjG+4DReYLw14h0QU1aiYsIqweLlklyX/7M9nS6G39+3bG9tPuzkcbRKigNbvxaqrkgi6zHieCCZKV6bYnx3RHF69dMbAKfPz46xrmP1BKSi4rhfZqS9l0r71Q/dM2VYibzmiSeci1vbbdOOjrEwU9cQEhmmgOC8gB6pXGq5Lhj/P8rOvpo6gAyaaN2DiMrOgEG5a8uUaEw5gptF8HzjNgbvgjDRQiuD8mmbNn1UQLLPC+tyWRdP7/cJQ+oHjCMIBlsrep/3QxIqWsvow2lvdIZidSsmeSwtvIrHcGcOblV7y+vQ+vBYeem2+/VwRWihlGEUXbHOzGbX8Ujy6FFjOK4hH2P2l3H/IQ5dN3dgK+bD/bQo2JL5jpZD8FOTuprfj1DYLwnS4v7CpXKRlDRIFkVukK3eUutjAatndSJyHmwyzKD4eOCrgdgOj3EmohpXF4ZNvwkzN6IvrAW9TOazEOgZOYnkpktDXKrmZIrcK+1GijC0reKf7cxCMitPIgcM2Ti99ynbOF5QYjY+0i46DD9wwWNLwOCoVW+Ox+cuJisKlVpiUN+e0j/3Ez8D0e+q7Ajikb65viCxwnCZGVOXWYKaZvC8h2TvAZzIHpmVp4WLPJbNEfwYGWii6UWhLXTPbuUKE5SLr2+KYIp9TLil2sstto6qD1OGJk1lP1Od+pdweUIFgv/JsTCzDZ0lLxQkEPNNyEEDfmubjaqmqF8IZKfpt9u7R7WHF++t5kE/tAmapDW4/C+BvD/1VEC8mMAelR2Ojci1HfYBtfVy42Nh0UqoZjAY0l2YCQFdH0DLqqJ6sOR/l0l5f8N3tUNNDXsztuTbZmw6yPfeGaoSH8gagALU0sPqKXwuDXhXLX8whWDlDILPRXKQUyfaU4Xy+OaGljrR3RNYEFSVSqjj1Ga1ccfeqw66o/urQEAbvZdWVQ89K5zcHr6n1LZKLfe8NHtCFv07FG52CGBXqV+zCAKRdoc7NmhgFBaPFq/KAQYsbWjhdE5MyI0oGj8EYkaCwPcd49iawu95zOV+ODvACnFksFquA1u7MKzWrl5hEoe1jI7OqpIXwlQkam3D+7DpGb0nCxY06LVqisMFCCCTjImi+8yCQbTrIFIqAGWXrCCRabToYs6jl/qbynEyyr59OsgQ+RvuAMrj5HOy/5qWI1eSHJyu1Urp9fHUZ4yR1akUkjRayKYl3LTqFP5wHmbz7BCQGSYB1Ty6rvA2Kai9yFSUS6bm6SPszBQjngoBRiciubA6oKZeRcAm7AVYhmw6ZPpV9JwIwXVvtNpe0BlOI4yIK/Od5Nalol7fRRP6TkJTBoWQtUanUQn+rvvzvbOPHR3wr7KHXulJt9u4tmscwWP0ToOXbRNSmy/f5jJAoNEVIzTnhEbnYyKvCmM8bUwG+ipsEwfWv1/RI1MaXsqkdcZuV9n5as92WbiWVm6KXcWJXFc5tCqItNdF+gqxX0oNpLE743OVc7nA2IILqZ46TGoe1zq/UmjxwbvMFhJPgRvOmXu+UQPHHO5L3jEH7NodO4Bogao/wDm5xTQPVs4w/2K2tpX+IxbX9x+9/iUCEe8ceco2yin29nPsOSDzW3VtHt0b87OGc2vbEQ0wUVRgTYGJ84U9WCDBJiDZbGBi71Ku1zVQTY4wBdgqxNZPg8IFOh7HMObDrtMECTZ/8XjrUMlVq10Z2JyPelJnh1IXiOhp8uNO7MaMuROswcdZ784yq5DlSOp0tEK67bVdGyjkqmu6dbG5EJZXfLEzUTiBSyVYE02t5jgbr2xyFXTc8tQas0gul35VOD+ArjjdZ9YZHlQYsQKhGpSsizDVZ1AeD6dd54sdjHKxnJ+uv2KMuXu0gLdgBa8YSTj8wchrfsf3/4/eLRPfLW41Bv5ebxODQ4p0BA4r/3hPsWhpEVyYPtrRUsNB3Gp2X6AnGjjOqjm65C1hdczBUJyJQw6GsJt45zPZ3J/hFSQvdznxxXexCmBiqJNljtNVo98NiRWCrD8y+OPFvmFRcwmzYuwbxnzWLeJi7K5P5bh5thZYGtWcfiGIusjFE2A0dPcaaftdP8uwPTwMzwCC0v5sI818oY9cOrzJV2Rb5CQqT0mfER7Ibw0OKp4w43YB2lmSIQMhJg0ZYplKlYeVfRr+MDk3GgU/Ce4iak31jbLoD+oGANUL5RfNZY17XDGOI/jAFxGroBldAMU+gUxuxCeiAruVKqke9bEtBH/3Ob9uwK6ea1eyIJn98Qi6/3n/U2o9PS0Cp0MKQCx30MCx+dgsnnntY27fpXW5s4kHKvpAGQBZ+4JUGsCBGQVdc8Ch4n48urUD7ESH690SXu4JLnA3YzoIJUfvQRkXlV3MAgCN/3hbwFhLZXh3wiorVoTBG8wSF2yeiZBCWKvqOpx9vtPy7di7dlzGTiBp6OLiwZtO2OsmCQd+YQK2pgZzeVj8xIeK5nyjGNp67szjU1bM0PLooU16aOu9HRAKdxhi/G5sLPebvcLW176S2OaEb7GBFP13lWkcJvQHKRcnVdPapGQsAVA1i3r2zrfD7LnTSm7DsTtz70NWbUAo+E/I+UxKq61XJmQPSLcBV4yPQOjltFMn9NPS+6e8qsa0Y/IJc7WLgJtWTMoKuA8g6avFhSQoYOVLN8E4V37q4D8vA5p3KIEKPldEb4dcWi5x6OSFMzlhULtY9J7MWNbAkCWJO7srNHs4vDzq/ap5dzZoBgOH5OWFr+xF/dsoCF6SpTMBw4ioXIZNK9QvLxc3oMplwBs6W1P2yxOQoMDK/C7OvtAVRv827L8SKIWBjTc96I5gSzEtC+p7B0CooexQrN/sYE5Yl7sq2ekT7oYYUGzLHbWcb9qeyVIQY2MgmzHDwQQJ8p2tQcdt7tRv/ceF4WeKPK/WFMgPG9mr0a152byb/FkliuWFyU6+s3j/45CxFZudb7Wl1l8MK95V+5zKrpFNRU6qgzziKEF2rDvcJacOSEf0zSST/br25gFhBSw2+c6EUGK+/c7k5HDWOtaYS516EkbbxprO+FYn0njqE9EC/WuZ523KPz/dJMz4GMsPBPsO31lotTixAif6dTtmrw/T+T7l5oxC36vK9M8eJ4q8sZru0SlakiTkW1f/W7LV73/mz5GaWAm6c09Va9pB2Zj/hEEBk320jjhv74wPnb0Xklk+kL1YgGGZ5cBjE08otMWVHkhOtCS0AmU62E1PsMm/ac8Hr1PbxKb80MQGoNf/6lsj574HaVuGEEFHCVaaFgwKe+qLDuH7SwRBkYbI3sv/4mrTBBDipFM1N6NZYG85OvKa8961YLVPwbW6WJwGGoZ5Dk+7t7GRWTRXti6AmGE1tvjwmw6wWGIl7M5nTgE3Ab5JeWGPO7ekcP7am0kSSaBbz0bbgRP9Hx7F/nm9SbTSylbl0uJxCuqH9oOfB7ph/ROXNIt5fUkiDngfJqd3FoXWJ5YnNYGt4NwZ0bwY3yeTkcCN4Raq2yap61JM//zyElKcvg5oS1MCHebbpYIog5ZBaH3aBLagYkkeUxj8JOYetCOxY8YKUe7naNd6QE/ElgOpLnWev/bZJFjMeo+a6KEf+V2r8LVQRXff/yVRNDFOOcxUC38JyqfR/c3RP5n8S6HCN4qZ4K+sJ3zNs996L1Vc3X4fHKtfazmvE8Z876lAa1dykJKCCoSQrO/IgJmm1YkxKBQfQ+auz+NhBOySqvyoNqPamVHxUjfGaRfPgAzruCqLuyk3PVV5oh+4AeUIZhp9AZjgMEYCG6o6xvdMZhSVT44TUEnDRyxjFzxTvXP80RXd6xuW9q3xCWeU3xyvjiGGQAkXWbX4EI35oI1C/6btMS4SDQpZVRk+P04QkPxKlqh78r3TYRlg0wL5xurItqBUBFAEX2mqMrLdL/j1y2SNKwBKbuwpxi4+gATFI09sNky3s5McG4vr8KYM3oXSrf7tv33V59RzD9uRTZLuIcilvdva5l3IpTpXUckJX3MTQm6QPFWysaA/vaET6EXIU0nTJGwgirxaOeoewI6nHSuJjvXArXKaSdjoZYs4US38vH8hdzg0UKSsRzfLE7YeJyCn0bDd9Be4FOnIOXebtIUzk6+NJxkYmiZzyjYCYmLH/fEV/i0VjrjDTZvtl8QufLOGcoSl/Li5S4CpNXde5ZQmtmoDLSc4jc5bW7FlyjUJejILVYL0VLK5PHEb7OYTzndwJwN0FQapzf139PO0Lm1wfIRY0r4FbhJ5Ekmd4Z4U3bvQ4a8RBghYIsbSq6emMXjo2OrfJfUzvieRAGiamJFLbw9XMQQbQrTNanDm0Iqcd4UrYwXWr/W1LgdKJ83DVDRTCrw11um2CYomd6DMPIrBvqCYGxvjTg4fwBPjefCojUOKgYwRFtagI7k1Ayu8GsUsCfVMzSRDqjd78KoRxrWz7AIEWfBjCtQtDR3ZZjlehOeX3Dypphkp+U6jwAEwpXtRSw/mCNI6Hd20u7O39GVVxZFGjjNzKHsZxSea7kfJGyUgDXropgqPoLho23RvTeZeeslwCXJmkvInhvV/yGiKREMCEM/sOV4WB+foIB8pku2KYqV9tEaKZCIP/gJnKkYvtS1IX6GIu5SRzKksZ1geukFpuAvRFp3B3eyZH8vHR33fQCwwNIREmlnNBafGmrXvsNdT6AtETs1jRUOyljLOu2/ptMELaflp7gCTJJIFmfIr4abYIWu1EuomYSZg89FID4gYb3PSoB5I7kBXFHxiBsUnP4GyH7m7PPZ8iBpyzEWqzllUCWS5mvYNUqDqyuFCRUMrKvLPEwo/rWn0b3ha1HnxxdrXXaIgLVIurfoYYn+JSR9qrlKlM9g/ilbqyIazp1Hekg/A/pCh08BfF5MgMURVwPXP87UMA6aPIOqDIGf2liUSIl0EM0YWkVD8Idf0RlbAKxf7BM2m1evYmhQzOfDTWPJRCEX+n369Hi1eDau4BfKniyeKEELbdStUbPXFt6WqZoPqQaKbFDVhmYlcWrcX8g/oxbcUjplIaVtP/lbS1fBDHjvGXlfBTo8VIE56Lgwnis38AY0l1wo/3a1YP4XKEYWQSgxfJ9oDwLAkiyTcT5d8/uDAMQ6TyYSLwar7ocoCfcA5SQWZHnVfucT2ABCbQYPydFUJb3LP4ZeVxq/y3BetsHugwY155RyIPAnhNTmr90wEl/58gHTCDRMQ4D+l3tXqby6sqZ6KLsYWiuw5qKvrSDfIsjC+9uOVi6ViNwpgbj+IopuqzVXJDdHzPdS2Tq11KMKiu2f2va1Ye72ebSqVRlAGtcL0EMf+KBN0VHJpKm+gPJkpoZ0PLXDJWytH/8F8TbW0ywYtAf+qjSmNiEOOMM2QbJ+rBTVz7Q8F+DR1gnywuhXN62hZjgeUjdJiDmvh550DELCGap+cLkBlIwoPbp7kbCO2t1FrFXbErVTsw988L73buVbC+K2ZYCMXfR1/TRG6ilXjRUV+l4IvMv6sqtz980Bb/racvN7n6OgmGHxAsYRQ9q1mz7gFVDbmHLvCmOi9s4qoZkwoP2yQIXy5+dW+TQqTzNivpd+wwH0E8WMM0nHedaIqyNkkSa4K/d91u1dfox+M8xWReISU8DfSpDorTxV0Ldq/pdsFcwxgSMVJPYdHZ4UJMeh0I+0t2FoWeIUv4FtpC+6WUxA0Z7nfhUKSubu9KIMXf5dzUf7lqLZIGK01JfHUQLJ2wY2J4QxC7AmS9u9JLEEqlYZz7cI+PYPJwSrOSpbxb8t3mvfY1i/dyySM7s2tCXvPDtQqeKkaJhIUPx/Suy7ChnLyNRNEjhHyVa/GoB94dYjIGMgUrnjbDzmH52qSTTWdplGoA+zP/JfNi4wBJD9Akax3VQ2CQFstREBtVEhH2LdCSA/C9sb3eMONRdRgcB81y2vGeYhkQTxG+OQDzsIu4Nh44Q2bc37fwQQ0fi+7+QQJJ7t4En0SLCDjttiSfFaFNBfSc0Pmuk1QXPtk9pW0ZaR0s57jGQ9U4c73vHK60tUYALTgtxYTXD1eA382elY1Dq9HSUxO5tQYBusWpayWYQkBj2YOZmpzQjHv8A15Wg71oUN0JrP/HX5S7poRUCSXe+SaXhb0xY12d0B9ftnm2rNFdKAaokMhIJK6Djh/P/GsuGnOWNwWD7r3ygvOd2hkHmfs6ueXNc9RIUJZLp5zh8japhWgOl2WBl/sppxQ8SmJc+LXkCeSDggFrv1b26gkz/mRBBajhfEOR2de41C1iZj0kjyQd2kU0Fhc1QBnXs9XJw+VsXJneg0PzX6E30REK7PIa0dVcZYpkdDoAzYx0cKA/cZZc6bSzcVeWk8tIsmGQCsCUedYzLmiKQI/JIsBHegtH52dTm8dUA+FSx32iDngPF+mUsR3eV8y1jzZhdGlgbpErqwsHfYPYlk48Sz2iEiW8VWIhR0dh2Fj5NsMInfFRR0E8;opacity=30;" parent="7XRXAS0IfvYh-QRF1dZH-2" vertex="1">
                    <mxGeometry y="105" width="840" height="559.98" as="geometry"/>
                </mxCell>
            </root>
        </mxGraphModel>
    </diagram>
    <diagram name="Page-3" id="MAFt150UWs63X4E5rxep">
        <mxGraphModel dx="1130" dy="1892" grid="1" gridSize="10" guides="1" tooltips="1" connect="1" arrows="1" fold="1" page="1" pageScale="1" pageWidth="850" pageHeight="1100" math="0" shadow="0">
            <root>
                <mxCell id="1352vZZiYIg3w1jynMco-0"/>
                <mxCell id="1352vZZiYIg3w1jynMco-1" parent="1352vZZiYIg3w1jynMco-0"/>
                <mxCell id="1352vZZiYIg3w1jynMco-2" value="" style="strokeWidth=1;shadow=0;dashed=0;align=center;html=1;shape=mxgraph.mockup.containers.browserWindow;rSize=0;strokeColor=#000000;strokeColor2=#008cff;strokeColor3=#c4c4c4;mainText=,;recursiveResize=0;fillColor=#333333;fontColor=#ffffff;" parent="1352vZZiYIg3w1jynMco-1" vertex="1">
                    <mxGeometry y="-945" width="850" height="945" as="geometry"/>
                </mxCell>
                <mxCell id="1352vZZiYIg3w1jynMco-3" value="Chess History" style="strokeWidth=1;shadow=0;dashed=0;align=center;html=1;shape=mxgraph.mockup.containers.anchor;fontSize=17;fontColor=#666666;align=left;" parent="1352vZZiYIg3w1jynMco-2" vertex="1">
                    <mxGeometry x="60" y="12" width="110" height="26" as="geometry"/>
                </mxCell>
                <mxCell id="1352vZZiYIg3w1jynMco-4" value="https://www.ilikechess/history.com" style="strokeWidth=1;shadow=0;dashed=0;align=center;html=1;shape=mxgraph.mockup.containers.anchor;rSize=0;fontSize=17;fontColor=#666666;align=left;" parent="1352vZZiYIg3w1jynMco-2" vertex="1">
                    <mxGeometry x="130" y="60" width="250" height="26" as="geometry"/>
                </mxCell>
                <mxCell id="1352vZZiYIg3w1jynMco-6" value="words&lt;br&gt;" style="rounded=0;whiteSpace=wrap;html=1;" parent="1352vZZiYIg3w1jynMco-2" vertex="1">
                    <mxGeometry x="15" y="215" width="820" height="125" as="geometry"/>
                </mxCell>
                <mxCell id="fYBuIZXlxH6jJAEtDvDM-2" value="" style="edgeStyle=none;html=1;fontSize=12;" parent="1352vZZiYIg3w1jynMco-2" source="1352vZZiYIg3w1jynMco-8" target="1352vZZiYIg3w1jynMco-11" edge="1">
                    <mxGeometry relative="1" as="geometry"/>
                </mxCell>
                <mxCell id="1352vZZiYIg3w1jynMco-8" value="&lt;h1&gt;why is chess so important?&lt;/h1&gt;" style="rounded=0;whiteSpace=wrap;html=1;" parent="1352vZZiYIg3w1jynMco-2" vertex="1">
                    <mxGeometry x="15" y="115" width="400" height="95" as="geometry"/>
                </mxCell>
                <mxCell id="1352vZZiYIg3w1jynMco-11" value="&lt;h1&gt;Back to home (page)&lt;/h1&gt;" style="rounded=0;whiteSpace=wrap;html=1;" parent="1352vZZiYIg3w1jynMco-2" vertex="1">
                    <mxGeometry x="435" y="115" width="400" height="95" as="geometry"/>
                </mxCell>
                <mxCell id="fYBuIZXlxH6jJAEtDvDM-0" value="words&lt;br&gt;" style="rounded=0;whiteSpace=wrap;html=1;" parent="1352vZZiYIg3w1jynMco-2" vertex="1">
                    <mxGeometry x="15" y="350" width="820" height="130" as="geometry"/>
                </mxCell>
                <mxCell id="fYBuIZXlxH6jJAEtDvDM-3" value="words&lt;br&gt;" style="rounded=0;whiteSpace=wrap;html=1;" parent="1352vZZiYIg3w1jynMco-2" vertex="1">
                    <mxGeometry x="15" y="490" width="820" height="130" as="geometry"/>
                </mxCell>
                <mxCell id="fYBuIZXlxH6jJAEtDvDM-4" value="words&lt;br&gt;" style="rounded=0;whiteSpace=wrap;html=1;" parent="1352vZZiYIg3w1jynMco-2" vertex="1">
                    <mxGeometry x="15" y="630" width="820" height="150" as="geometry"/>
                </mxCell>
                <mxCell id="YMIU2Ns0lXho2a9ocqJD-10" value="words&lt;br&gt;" style="rounded=0;whiteSpace=wrap;html=1;" parent="1352vZZiYIg3w1jynMco-2" vertex="1">
                    <mxGeometry x="15" y="790" width="820" height="145" as="geometry"/>
                </mxCell>
            </root>
        </mxGraphModel>
    </diagram>
    <diagram name="Page-4" id="EPZfOo6jGYLZHjjACWGD">
        <mxGraphModel dx="2830" dy="1892" grid="1" gridSize="10" guides="1" tooltips="1" connect="1" arrows="1" fold="1" page="1" pageScale="1" pageWidth="850" pageHeight="1100" math="0" shadow="0">
            <root>
                <mxCell id="nqctVY39I_D6JjggYWb4-0"/>
                <mxCell id="nqctVY39I_D6JjggYWb4-1" parent="nqctVY39I_D6JjggYWb4-0"/>
                <mxCell id="nqctVY39I_D6JjggYWb4-2" value="" style="strokeWidth=1;shadow=0;dashed=0;align=center;html=1;shape=mxgraph.mockup.containers.browserWindow;rSize=0;strokeColor=#000000;strokeColor2=#008cff;strokeColor3=#c4c4c4;mainText=,;recursiveResize=0;fillColor=#333333;fontColor=#ffffff;" parent="nqctVY39I_D6JjggYWb4-1" vertex="1">
                    <mxGeometry x="-1265" y="-940" width="840" height="730" as="geometry"/>
                </mxCell>
                <mxCell id="nqctVY39I_D6JjggYWb4-3" value="Contacts" style="strokeWidth=1;shadow=0;dashed=0;align=center;html=1;shape=mxgraph.mockup.containers.anchor;fontSize=17;fontColor=#666666;align=left;" parent="nqctVY39I_D6JjggYWb4-2" vertex="1">
                    <mxGeometry x="60" y="12" width="110" height="26" as="geometry"/>
                </mxCell>
                <mxCell id="nqctVY39I_D6JjggYWb4-4" value="https://www.ilikechess/contacts.com" style="strokeWidth=1;shadow=0;dashed=0;align=center;html=1;shape=mxgraph.mockup.containers.anchor;rSize=0;fontSize=17;fontColor=#666666;align=left;" parent="nqctVY39I_D6JjggYWb4-2" vertex="1">
                    <mxGeometry x="130" y="60" width="250" height="26" as="geometry"/>
                </mxCell>
                <mxCell id="nqctVY39I_D6JjggYWb4-7" value="" style="rounded=0;whiteSpace=wrap;html=1;" parent="nqctVY39I_D6JjggYWb4-2" vertex="1">
                    <mxGeometry x="10" y="230" width="390" height="390" as="geometry"/>
                </mxCell>
                <mxCell id="nqctVY39I_D6JjggYWb4-8" value="&lt;h1&gt;Contact us&lt;/h1&gt;" style="rounded=0;whiteSpace=wrap;html=1;" parent="nqctVY39I_D6JjggYWb4-2" vertex="1">
                    <mxGeometry x="10" y="120" width="390" height="100" as="geometry"/>
                </mxCell>
                <mxCell id="nqctVY39I_D6JjggYWb4-11" value="&lt;h1&gt;Back to home (page)&lt;/h1&gt;" style="rounded=0;whiteSpace=wrap;html=1;" parent="nqctVY39I_D6JjggYWb4-2" vertex="1">
                    <mxGeometry x="410" y="120" width="420" height="100" as="geometry"/>
                </mxCell>
                <mxCell id="VxHFOWto3UqxBmsEr1-2-0" value="" style="rounded=0;whiteSpace=wrap;html=1;" parent="nqctVY39I_D6JjggYWb4-2" vertex="1">
                    <mxGeometry x="410" y="230" width="420" height="190" as="geometry"/>
                </mxCell>
                <mxCell id="JuDT_VhtcBiZMe59xGlP-1" value="" style="rounded=0;whiteSpace=wrap;html=1;" parent="nqctVY39I_D6JjggYWb4-2" vertex="1">
                    <mxGeometry x="410" y="430" width="420" height="190" as="geometry"/>
                </mxCell>
                <mxCell id="zsLQhnzi8jFsVdIr61PK-0" value="" style="rounded=0;whiteSpace=wrap;html=1;" parent="nqctVY39I_D6JjggYWb4-2" vertex="1">
                    <mxGeometry x="10" y="630" width="820" height="90" as="geometry"/>
                </mxCell>
            </root>
        </mxGraphModel>
    </diagram>
</mxfile>